# 3ds Max Wavefront OBJ Exporter v0.97b - (c)2007 guruware
# File Created: 23.03.2018 10:42:52

mtllib PRP_Sofa_1.mtl

#
# object Chair2
#

v  -87.3816 0.1448 30.3182
v  -87.3816 0.1448 -14.5776
v  87.3816 0.1448 -14.5777
v  87.3054 0.1448 30.5041
v  -93.6773 40.2545 31.7300
v  93.6011 40.2545 31.9158
v  93.6773 39.7974 -15.1359
v  -93.6773 39.7974 -15.1358
v  89.1486 15.3665 31.0512
v  91.3862 23.0860 31.7153
v  -91.4623 23.0860 31.5294
v  -89.2247 15.3665 30.8653
v  89.2248 15.3665 -14.9776
v  91.4623 23.0860 -15.4630
v  -89.2248 15.3665 -22.1032
v  -91.4623 23.0860 -22.7674
v  91.4623 23.0860 -22.7674
v  89.2248 15.3665 -22.1033
v  -89.2248 15.3665 -14.9775
v  -91.4623 23.0860 -15.4630
v  -87.3816 0.1448 -21.5561
v  87.3816 0.1448 -21.5562
v  92.6615 85.4963 -19.7201
v  92.6615 85.4963 -27.2685
v  -94.1532 95.5241 -27.2685
v  -94.1531 95.5241 -19.7200
v  94.5182 38.5068 -23.6745
v  -94.5182 38.5068 -23.6744
v  -104.1690 85.5495 -26.5056
v  -103.0561 91.0910 -26.9294
v  -99.7175 94.4158 -27.1837
v  98.2258 84.3880 -27.1838
v  101.5645 81.0631 -26.9295
v  102.6773 75.5217 -26.5056
v  -94.5182 38.5068 -16.1260
v  -104.1690 85.5495 -18.9571
v  101.8364 75.5972 -17.4884
v  100.7898 80.8087 -17.8870
v  97.8113 83.7750 -18.1139
v  92.5782 84.8173 -18.1936
v  -94.0699 94.8451 -18.1936
v  -99.3029 93.8028 -18.1138
v  -102.2815 90.8365 -17.8869
v  -103.3281 85.6250 -17.4883
v  94.5182 38.5068 -16.1260
v  102.6773 75.5217 -18.9572
v  -99.7175 94.4158 -19.6352
v  98.2258 84.3880 -19.6353
v  -103.0561 91.0910 -19.3809
v  101.5645 81.0631 -19.3810
v  -94.5182 38.5068 32.4365
v  94.4420 38.5068 32.6224
v  93.6011 38.5068 31.9158
v  -93.6773 38.5068 31.7300
v  93.6773 38.5068 -16.1260
v  101.8364 75.4388 -18.9508
v  100.7898 80.6503 -19.3494
v  97.8113 83.6166 -19.5763
v  92.5782 84.6589 -19.6560
v  -94.0699 94.6867 -19.6560
v  -99.3029 93.6444 -19.5762
v  -102.2815 90.6781 -19.3494
v  -103.3281 85.4666 -18.9508
v  -93.6773 38.5068 -16.1260
v  94.4420 30.8054 32.6224
v  -94.5182 30.8054 32.4365
v  -87.8497 7.7014 30.4571
v  87.7736 7.7014 30.6430
v  94.5182 30.8054 -16.1260
v  87.8498 7.7014 -14.6792
v  -94.5182 30.8054 -23.6744
v  94.5182 30.8054 -23.6745
v  87.8498 7.7014 -21.6951
v  -87.8498 7.7014 -21.6951
v  -94.5182 30.8054 -16.1260
v  -87.8498 7.7014 -14.6792
# 76 vertices

vn 0.0000 -1.0000 -0.0000
vn 0.0000 1.0000 -0.0082
vn -0.0000 1.0000 -0.0082
vn -0.0012 -0.0850 0.9964
vn -0.0012 -0.1235 0.9923
vn -0.0012 -0.1243 0.9922
vn -0.0012 -0.0856 0.9963
vn 0.9737 -0.2278 0.0007
vn 0.9462 -0.3236 0.0007
vn 0.9450 -0.3269 0.0013
vn 0.9731 -0.2304 0.0013
vn -0.0000 -0.0853 -0.9964
vn -0.0000 -0.1239 -0.9923
vn -0.9737 -0.2278 0.0000
vn -0.9462 -0.3236 0.0000
vn -0.9451 -0.3268 0.0000
vn -0.9731 -0.2304 0.0000
vn 0.1252 0.9921 -0.0000
vn 0.1244 0.9922 -0.0000
vn -0.0707 0.9975 0.0000
vn -0.0721 0.9974 0.0000
vn 0.9731 -0.2304 -0.0000
vn 0.9451 -0.3268 -0.0000
vn -0.0038 -0.0872 -0.9962
vn -0.0019 -0.0750 -0.9972
vn -0.0476 -0.0811 -0.9956
vn -0.0194 -0.0766 -0.9969
vn -0.0072 -0.0752 -0.9971
vn -0.0019 -0.0761 -0.9971
vn -0.0066 -0.1236 -0.9923
vn -0.0051 -0.0972 -0.9953
vn -0.0048 -0.0927 -0.9957
vn -0.0046 -0.0906 -0.9959
vn -0.9796 -0.2010 0.0000
vn -0.9999 -0.0124 0.0000
vn -1.0000 0.0081 0.0000
vn 0.0039 0.0644 0.9979
vn -0.0014 0.0807 0.9967
vn -0.0298 0.0847 0.9960
vn -0.0124 0.0817 0.9966
vn -0.0046 0.0808 0.9967
vn -0.0005 0.0791 0.9969
vn 0.0038 0.0715 0.9974
vn 0.0045 0.0847 0.9964
vn 0.0046 0.0886 0.9961
vn 0.0046 0.0759 0.9971
vn 0.9766 -0.2153 -0.0000
vn 1.0000 0.0025 -0.0000
vn 0.9998 -0.0213 -0.0000
vn -0.4635 0.8861 0.0000
vn -0.4774 0.8787 0.0000
vn 0.4774 0.8787 -0.0000
vn 0.4635 0.8861 -0.0000
vn -0.8738 0.4862 0.0000
vn -0.8878 0.4601 0.0000
vn 0.8878 0.4601 -0.0000
vn 0.8738 0.4862 -0.0000
vn 0.0000 1.0000 -0.0000
vn 0.0000 0.0907 0.9959
vn -0.0000 0.0907 0.9959
vn 0.0049 0.0907 0.9959
vn -0.0010 0.0712 0.9975
vn -0.0012 0.0000 1.0000
vn 1.0000 -0.0005 0.0013
vn 0.9570 -0.2014 0.2089
vn 1.0000 -0.0095 0.0009
vn 1.0000 -0.0086 0.0030
vn 0.9548 -0.2004 0.2195
vn 0.8817 0.4699 -0.0428
vn 0.4719 0.8780 -0.0799
vn 0.1252 0.9880 -0.0899
vn 0.1250 0.9881 -0.0899
vn -0.0717 0.9933 -0.0904
vn -0.0721 0.9933 -0.0904
vn -0.4719 0.8780 -0.0799
vn -0.8817 0.4699 -0.0428
vn -1.0000 -0.0060 0.0022
vn -1.0000 -0.0030 0.0003
vn -0.9623 -0.1834 0.2008
vn -0.9628 -0.1838 0.1980
vn -1.0000 0.0000 0.0000
vn -0.0012 -0.0000 1.0000
vn -0.0012 -0.1381 0.9904
vn -0.0012 -0.1389 0.9903
vn -0.0012 -0.0442 0.9990
vn -0.0013 -0.0220 0.9998
vn -0.0013 -0.0218 0.9998
vn -0.0013 -0.0439 0.9990
vn 1.0000 0.0000 0.0013
vn 0.9298 -0.3680 0.0006
vn 0.9297 -0.3682 0.0012
vn 0.9927 -0.1210 0.0014
vn 0.9981 -0.0619 0.0014
vn 0.9981 -0.0618 0.0007
vn 0.9928 -0.1194 0.0007
vn -0.0000 -0.0000 -1.0000
vn -0.0000 -0.1385 -0.9904
vn -0.0000 -0.0441 -0.9990
vn -0.0000 -0.0219 -0.9998
vn -0.9298 -0.3681 0.0000
vn -0.9927 -0.1209 0.0000
vn -0.9981 -0.0618 0.0000
vn -0.9928 -0.1194 0.0000
vn 1.0000 0.0000 -0.0000
vn 0.9298 -0.3681 -0.0000
vn 0.9981 -0.0618 -0.0000
vn 0.9927 -0.1209 -0.0000
# 107 vertex normals

vt 1.0000 0.0000 0.0000
vt 1.0000 0.7834 0.0000
vt 0.0000 0.7834 0.0000
vt 0.0000 0.0000 0.0000
vt 1.0000 0.4000 0.0000
vt 1.0000 0.6000 0.0000
vt 0.0000 0.6000 0.0000
vt 0.0000 0.4000 0.0000
vt 0.7834 0.4000 0.0000
vt 0.7834 0.6000 0.0000
vt 0.2166 0.4000 0.0000
vt 0.2166 0.6000 0.0000
vt 1.0000 1.0000 0.0000
vt 0.0000 1.0000 0.0000
vt 0.9470 0.7834 0.0000
vt 0.9470 1.0000 0.0000
vt 0.0530 1.0000 0.0000
vt 0.0530 0.7834 0.0000
vt 0.0059 1.0000 0.0000
vt 0.0235 1.0000 0.0000
vt 0.9765 1.0000 0.0000
vt 0.9941 1.0000 0.0000
vt 0.9941 0.7834 0.0000
vt 0.9765 0.7834 0.0000
vt 0.0235 0.7834 0.0000
vt 0.0059 0.7834 0.0000
vt 1.0000 0.8000 0.0000
vt 0.0000 0.8000 0.0000
vt 0.0000 0.2000 0.0000
vt 1.0000 0.2000 0.0000
vt 0.7834 0.8000 0.0000
vt 0.7834 1.0000 0.0000
vt 0.7834 0.0000 0.0000
vt 0.7834 0.2000 0.0000
vt 0.2166 0.8000 0.0000
vt 0.2166 1.0000 0.0000
vt 0.2166 0.0000 0.0000
vt 0.2166 0.2000 0.0000
# 38 texture coords

g Chair2
usemtl _World2Chris_Hair
s 1
f 1/1/1 2/2/1 3/3/1 4/4/1 
f 5/4/2 6/1/2 7/2/3 8/3/2 
s 2
f 9/5/4 10/6/5 11/7/6 12/8/7 
s 4
f 13/9/8 14/10/9 10/7/10 9/8/11 
s 2
f 15/5/12 16/6/13 17/7/13 18/8/12 
s 4
f 19/11/14 20/12/15 16/7/16 15/8/17 
s 1
f 2/2/1 21/13/1 22/14/1 3/3/1 
f 23/15/18 24/16/19 25/17/20 26/18/21 
s 4
f 18/5/22 17/6/23 14/10/9 13/9/8 
f 12/5/17 11/6/16 20/12/15 19/11/14 
s 2
f 27/13/24 28/14/25 29/14/26 30/19/27 31/20/28 25/17/29 24/16/30 32/21/31 33/22/32 34/13/33 
s 1
f 28/14/34 35/3/34 36/3/35 29/14/36 
s 2
f 8/3/37 7/2/38 37/2/39 38/23/40 39/24/41 40/15/42 41/18/43 42/25/44 43/26/45 44/3/46 
s 1
f 45/2/47 27/13/47 34/13/48 46/2/49 
f 25/17/20 31/20/50 47/25/51 26/18/21 
f 23/15/18 48/24/52 32/21/53 24/16/19 
f 31/20/50 30/19/54 49/26/55 47/25/51 
f 30/19/54 29/14/36 36/3/35 49/26/55 
f 48/24/52 50/23/56 33/22/57 32/21/53 
f 50/23/56 46/2/49 34/13/48 33/22/57 
s off
f 51/4/58 52/1/58 53/1/58 54/4/58 
f 52/1/58 45/2/58 55/2/58 53/1/58 
f 45/2/59 46/2/59 56/2/59 55/2/59 
f 46/2/59 50/23/59 57/23/59 56/2/59 
f 50/23/60 48/24/60 58/24/60 57/23/60 
f 48/24/60 23/15/60 59/15/60 58/24/60 
f 23/15/61 26/18/61 60/18/61 59/15/61 
f 26/18/59 47/25/59 61/25/59 60/18/59 
f 47/25/59 49/26/59 62/26/59 61/25/59 
f 49/26/60 36/3/60 63/3/60 62/26/60 
f 36/3/62 35/3/62 64/3/62 63/3/62 
f 35/3/58 51/4/58 54/4/58 64/3/58 
f 54/4/63 53/1/63 6/1/63 5/4/63 
f 53/1/64 55/2/64 7/2/64 6/1/64 
s 4
f 55/2/65 56/2/66 37/2/67 7/2/68 
f 56/2/66 57/23/69 38/23/69 37/2/67 
f 57/23/69 58/24/70 39/24/70 38/23/69 
f 58/24/70 59/15/71 40/15/72 39/24/70 
f 59/15/71 60/18/73 41/18/74 40/15/72 
f 60/18/73 61/25/75 42/25/75 41/18/74 
f 61/25/75 62/26/76 43/26/76 42/25/75 
f 62/26/76 63/3/77 44/3/78 43/26/76 
f 63/3/77 64/3/79 8/3/80 44/3/78 
s off
f 64/3/81 54/4/81 5/4/81 8/3/81 
f 65/27/82 52/13/82 51/14/82 66/28/82 
s 2
f 10/6/5 65/27/83 66/28/84 11/7/6 
f 67/29/85 1/4/86 4/1/87 68/30/88 
f 12/8/7 67/29/85 68/30/88 9/5/4 
s off
f 69/31/89 45/32/89 52/14/89 65/28/89 
s 4
f 14/10/9 69/31/90 65/28/91 10/7/10 
f 68/29/92 4/4/93 3/33/94 70/34/95 
f 9/8/11 68/29/92 70/34/95 13/9/8 
s off
f 71/27/96 28/13/96 27/14/96 72/28/96 
s 2
f 16/6/13 71/27/97 72/28/97 17/7/13 
f 73/29/98 22/4/99 21/1/99 74/30/98 
f 18/8/12 73/29/98 74/30/98 15/5/12 
s off
f 75/35/81 35/36/81 28/14/81 71/28/81 
s 4
f 20/12/15 75/35/100 71/28/100 16/7/16 
f 74/29/101 21/4/102 2/37/102 76/38/103 
f 15/8/17 74/29/101 76/38/103 19/11/14 
s off
f 72/27/104 27/13/104 45/32/104 69/31/104 
s 4
f 17/6/23 72/27/105 69/31/90 14/10/9 
f 70/34/95 3/33/94 22/1/106 73/30/107 
f 13/9/8 70/34/95 73/30/107 18/5/22 
s off
f 66/27/81 51/13/81 35/36/81 75/35/81 
s 4
f 11/6/16 66/27/100 75/35/100 20/12/15 
f 76/38/103 2/37/102 1/1/102 67/30/101 
f 19/11/14 76/38/103 67/30/101 12/5/17 
# 68 polygons

