# 3ds Max Wavefront OBJ Exporter v0.97b - (c)2007 guruware
# File Created: 22.03.2018 09:44:14

mtllib PRP_Tray_1.mtl

#
# object TrayA
#

v  -11.7159 -0.0154 35.6266
v  -11.7159 -0.0154 -35.6266
v  11.7159 -0.0154 -35.6266
v  11.7159 -0.0154 35.6266
v  -12.7625 3.4821 36.6732
v  12.7625 3.4821 36.6732
v  12.7625 3.4821 -36.6732
v  -12.7625 3.4821 -36.6732
v  -17.6194 4.6517 42.6923
v  17.6194 4.6517 42.6923
v  17.6194 5.6273 42.6923
v  -17.6194 5.6273 42.6923
v  17.6194 4.6517 -42.6923
v  17.6194 5.6273 -42.6923
v  -17.6194 4.6517 -42.6923
v  -17.6194 5.6273 -42.6923
v  -12.7625 2.2092 36.6732
v  -12.7625 2.2092 -36.6732
v  12.7625 2.2092 -36.6732
v  12.7625 2.2092 36.6732
v  -14.3984 3.2792 38.7005
v  -14.3984 3.2792 -38.7005
v  14.3984 3.2792 38.7005
v  14.3984 3.2792 -38.7005
v  -14.2420 4.5521 38.4880
v  14.2420 4.5521 38.4880
v  -14.2420 4.5521 -38.4880
v  14.2420 4.5521 -38.4880
v  -15.5102 5.1066 40.0783
v  15.5102 5.1066 40.0783
v  -15.5102 5.1066 -40.0783
v  15.5102 5.1066 -40.0783
v  -16.0276 4.0919 40.7196
v  -16.0276 4.0919 -40.7196
v  16.0276 4.0919 40.7196
v  16.0276 4.0919 -40.7196
# 36 vertices

vn 0.0000 -1.0000 -0.0000
vn 0.0000 1.0000 -0.0000
vn 0.0000 0.0000 1.0000
vn 1.0000 0.0000 -0.0000
vn 0.0000 0.0000 -1.0000
vn -1.0000 0.0000 -0.0000
vn -0.9049 -0.4257 -0.0000
vn 0.0000 -0.4257 -0.9049
vn 0.9049 -0.4257 -0.0000
vn 0.0000 -0.4257 0.9049
vn -0.5474 -0.8369 -0.0000
vn -0.4714 -0.8819 -0.0000
vn 0.0000 -0.8844 0.4668
vn 0.0000 -0.9157 0.4019
vn 0.5474 -0.8369 -0.0000
vn 0.4714 -0.8819 -0.0000
vn 0.0000 -0.8844 -0.4668
vn 0.0000 -0.9157 -0.4019
vn 0.0000 0.8614 -0.5079
vn 0.0000 0.9230 -0.3848
vn 0.5860 0.8103 -0.0000
vn 0.4480 0.8940 -0.0000
vn 0.0000 0.8614 0.5079
vn 0.0000 0.9230 0.3848
vn -0.5860 0.8103 -0.0000
vn -0.4480 0.8940 -0.0000
vn 0.0000 0.9720 -0.2350
vn 0.0000 0.9807 -0.1953
vn 0.2768 0.9609 -0.0000
vn 0.2396 0.9709 -0.0000
vn 0.0000 0.9720 0.2350
vn 0.0000 0.9807 0.1953
vn -0.2768 0.9609 -0.0000
vn -0.2396 0.9709 -0.0000
vn -0.3588 -0.9334 -0.0000
vn -0.3318 -0.9434 -0.0000
vn 0.0000 -0.9530 0.3029
vn 0.0000 -0.9620 0.2730
vn 0.3588 -0.9334 -0.0000
vn 0.3318 -0.9434 -0.0000
vn 0.0000 -0.9530 -0.3029
vn 0.0000 -0.9620 -0.2730
# 42 vertex normals

vt 1.0000 0.0000 0.0000
vt 1.0000 1.0000 0.0000
vt 0.0000 1.0000 0.0000
vt 0.0000 0.0000 0.0000
# 4 texture coords

g TrayA
usemtl 01___Default
s 2147483649
f 1/1/1 2/2/1 3/3/1 4/4/1 
s 2147483648
f 5/4/2 6/1/2 7/2/2 8/3/2 
s off
f 9/4/3 10/1/3 11/2/3 12/3/3 
f 10/4/4 13/1/4 14/2/4 11/3/4 
f 13/4/5 15/1/5 16/2/5 14/3/5 
f 15/4/6 9/1/6 12/2/6 16/3/6 
s 2
f 17/1/7 18/2/7 2/2/7 1/1/7 
s 4
f 18/2/8 19/3/8 3/3/8 2/2/8 
s 2
f 19/3/9 20/4/9 4/4/9 3/3/9 
s 4
f 20/4/10 17/1/10 1/1/10 4/4/10 
s 67108864
f 18/4/11 17/1/11 21/1/12 22/4/12 
s 134217728
f 17/4/13 20/1/13 23/1/14 21/4/14 
s 1
f 20/4/15 19/1/15 24/1/16 23/4/16 
s 134217728
f 19/4/17 18/1/17 22/1/18 24/4/18 
s 8388608
f 6/2/19 5/3/19 25/3/20 26/2/20 
s 2097152
f 5/2/21 8/3/21 27/3/22 25/2/22 
s 8388608
f 8/2/23 7/3/23 28/3/24 27/2/24 
s 2097152
f 7/2/25 6/3/25 26/3/26 28/2/26 
s 8388608
f 29/3/27 12/3/28 11/2/28 30/2/27 
s 2097152
f 31/3/29 16/3/30 12/2/30 29/2/29 
s 8388608
f 32/3/31 14/3/32 16/2/32 31/2/31 
s 2097152
f 30/3/33 11/3/34 14/2/34 32/2/33 
s 67108864
f 33/1/35 9/1/36 15/4/36 34/4/35 
s 134217728
f 35/1/37 10/1/38 9/4/38 33/4/37 
s 1
f 36/1/39 13/1/40 10/4/40 35/4/39 
s 134217728
f 34/1/41 15/1/42 13/4/42 36/4/41 
s 8388608
f 25/3/20 29/3/27 30/2/27 26/2/20 
s 2097152
f 27/3/22 31/3/29 29/2/29 25/2/22 
s 8388608
f 28/3/24 32/3/31 31/2/31 27/2/24 
s 2097152
f 26/3/26 30/3/33 32/2/33 28/2/26 
s 67108864
f 21/1/12 33/1/35 34/4/35 22/4/12 
s 134217728
f 23/1/14 35/1/37 33/4/37 21/4/14 
s 1
f 24/1/16 36/1/39 35/4/39 23/4/16 
s 134217728
f 22/1/18 34/1/41 36/4/41 24/4/18 
# 34 polygons

