# 3ds Max Wavefront OBJ Exporter v0.97b - (c)2007 guruware
# File Created: 23.03.2018 15:56:25

mtllib PRP_Cereal1_1.mtl

#
# object Cereal1
#

v  -9.2238 0.0000 6.4597
v  -9.2238 0.0000 -6.9625
v  11.8063 0.0000 -6.9625
v  11.8063 0.0000 6.4597
v  12.9569 39.3303 6.9625
v  -12.9569 37.2898 6.9625
v  12.9569 39.3303 -6.9625
v  -12.9569 37.2898 -6.9625
v  8.3993 44.9131 -5.7937
v  8.3993 44.9131 5.2909
v  -8.1562 40.2795 5.2909
v  -8.1562 40.2795 -5.7937
v  11.4243 12.8372 -6.5901
v  -8.8606 12.8545 -6.5870
v  -8.8606 12.8545 6.0842
v  11.4243 12.8372 6.0872
v  12.3987 39.0862 6.1532
v  -12.4395 36.9979 6.1162
v  12.3987 39.0862 -6.6561
v  -12.4395 36.9979 -6.6190
v  8.1790 44.6131 -5.7937
v  8.1790 44.6131 5.2909
v  -8.0743 39.9770 5.2909
v  -8.0743 39.9770 -5.7937
# 24 vertices

vn 0.0000 -1.0000 -0.0000
vn 0.0005 -0.0166 0.9999
vn 0.0000 -0.0163 0.9999
vn 0.0007 -0.0168 0.9999
vn 0.0011 -0.0171 0.9999
vn 0.9994 -0.0355 -0.0000
vn 0.0000 0.0000 -1.0000
vn -0.9927 -0.1208 -0.0000
vn 0.7099 0.7043 0.0000
vn -0.4561 0.8899 0.0000
vn 0.0007 1.0000 -0.0000
vn 0.0008 0.0026 -1.0000
vn 0.0002 0.0032 -1.0000
vn 0.0009 0.0025 -1.0000
vn 0.0014 0.0019 -1.0000
vn -0.9990 0.0451 -0.0000
vn 0.0008 0.0025 1.0000
vn 0.0002 0.0017 1.0000
vn 0.0013 0.0031 1.0000
vn 0.9842 0.1773 -0.0000
vn -0.7331 -0.6801 -0.0000
vn 0.4897 -0.8719 -0.0000
vn -0.0654 0.9540 -0.2926
vn -0.0635 0.9797 -0.1900
vn -0.0635 0.9794 -0.1918
vn -0.0655 0.9530 -0.2959
vn -0.0607 0.8881 0.4556
vn -0.0515 0.7953 0.6040
vn -0.0516 0.7960 0.6031
vn -0.0609 0.8907 0.4506
vn -0.1295 0.0786 -0.9885
vn -0.4352 -0.1972 -0.8785
vn -0.4278 -0.1900 -0.8837
vn -0.1082 0.0965 -0.9894
vn -0.7461 0.6659 -0.0000
vn -0.6535 -0.4830 0.5828
vn -0.1956 0.1745 0.9650
vn -0.2432 0.1212 0.9624
vn -0.6622 -0.5041 0.5544
vn 0.2166 -0.0306 0.9758
vn 0.5327 -0.6859 0.4958
vn 0.5296 -0.6753 0.5133
vn 0.1650 0.0542 0.9848
vn 0.9500 0.3122 -0.0000
vn 0.3836 -0.3801 -0.8416
vn 0.2131 0.0700 -0.9745
vn 0.2248 0.0437 -0.9734
vn 0.3903 -0.4022 -0.8282
# 48 vertex normals

vt 1.0000 0.0000 0.0000
vt 1.0000 1.0000 0.0000
vt 0.0000 1.0000 0.0000
vt 0.0000 0.0000 0.0000
# 4 texture coords

g Cereal1
usemtl _World2Chris_Hair
s 2
f 1/1/1 2/2/1 3/3/1 4/4/1 
s 8
f 1/4/2 4/1/3 5/2/4 6/3/5 
s 16
f 4/4/6 3/1/6 7/2/6 5/3/6 
s 32
f 3/4/7 2/1/7 8/2/7 7/3/7 
s 64
f 2/4/8 1/1/8 6/2/8 8/3/8 
s off
f 5/1/9 7/2/9 9/2/9 10/1/9 
f 8/3/10 6/4/10 11/4/10 12/3/10 
s 2
f 13/3/11 14/2/11 15/1/11 16/4/11 
s 8
f 17/2/12 16/1/13 15/4/14 18/3/15 
s 16
f 19/2/16 13/1/16 16/4/16 17/3/16 
s 32
f 20/2/17 14/1/18 13/4/17 19/3/19 
s 64
f 18/2/20 15/1/20 14/4/20 20/3/20 
s off
f 21/2/21 19/2/21 17/1/21 22/1/21 
f 23/4/22 18/4/22 20/3/22 24/3/22 
s 1
f 6/3/23 5/2/24 17/2/25 18/3/26 
f 7/3/27 8/2/28 20/2/29 19/3/30 
s 2
f 9/2/31 7/2/32 19/2/33 21/2/34 
s 1
f 10/1/35 9/2/35 21/2/35 22/1/35 
s 2
f 5/1/36 10/1/37 22/1/38 17/1/39 
f 11/4/40 6/4/41 18/4/42 23/4/43 
s 1
f 12/3/44 11/4/44 23/4/44 24/3/44 
s 2
f 8/3/45 12/3/46 24/3/47 20/3/48 
# 22 polygons

