# 3ds Max Wavefront OBJ Exporter v0.97b - (c)2007 guruware
# File Created: 22.03.2018 09:38:29

mtllib PRP_Saver_1.mtl

#
# object Saver
#

v  1.7013 3.3906 -0.4559
v  1.2454 3.3906 -1.2454
v  1.2454 3.6607 -1.2454
v  1.7013 3.6607 -0.4559
v  0.4559 3.3906 -1.7013
v  0.4559 3.6607 -1.7013
v  0.3011 3.3906 -2.0551
v  -0.3011 3.3906 -2.0551
v  -0.3011 3.6607 -2.0551
v  0.3011 3.6607 -2.0551
v  -0.4559 3.3906 -1.7013
v  -1.2454 3.3906 -1.2454
v  -1.2454 3.6607 -1.2454
v  -0.4559 3.6607 -1.7013
v  -1.7013 3.3906 -0.4559
v  -1.7013 3.6607 -0.4559
v  -2.0551 3.3906 -0.3011
v  -2.0551 3.3906 0.3011
v  -2.0551 3.6607 0.3011
v  -2.0551 3.6607 -0.3011
v  -1.7013 3.3906 0.4559
v  -1.2454 3.3906 1.2454
v  -1.2454 3.6607 1.2454
v  -1.7013 3.6607 0.4559
v  -0.4559 3.3906 1.7013
v  -0.4559 3.6607 1.7013
v  -0.3011 3.3906 2.0551
v  0.3011 3.3906 2.0551
v  0.3011 3.6607 2.0551
v  -0.3011 3.6607 2.0551
v  0.4559 3.3906 1.7013
v  1.2454 3.3906 1.2454
v  1.2454 3.6607 1.2454
v  0.4559 3.6607 1.7013
v  1.7013 3.3906 0.4559
v  1.7013 3.6607 0.4559
v  2.0551 3.3906 0.3011
v  2.0551 3.3906 -0.3011
v  2.0551 3.6607 -0.3011
v  2.0551 3.6607 0.3011
v  1.0478 3.5249 -0.2808
v  0.7671 3.5249 -0.7671
v  0.2808 3.5249 -1.0478
v  -0.2808 3.5249 -1.0478
v  -0.7671 3.5249 -0.7671
v  -1.0478 3.5249 -0.2808
v  -1.0478 3.5249 0.2808
v  -0.7671 3.5249 0.7671
v  -0.2808 3.5249 1.0478
v  0.2808 3.5249 1.0478
v  0.7671 3.5249 0.7671
v  1.0478 3.5249 0.2808
v  0.4559 3.3906 -1.9003
v  0.4559 3.6607 -1.9003
v  -0.4559 3.3906 -1.9003
v  -0.4559 3.6607 -1.9003
v  -1.9003 3.3906 -0.4559
v  -1.9003 3.6607 -0.4559
v  -1.9003 3.3906 0.4559
v  -1.9003 3.6607 0.4559
v  -0.4559 3.3906 1.9003
v  -0.4559 3.6607 1.9003
v  0.4559 3.3906 1.9003
v  0.4559 3.6607 1.9003
v  1.9003 3.6607 -0.4559
v  1.9003 3.3906 -0.4559
v  1.9003 3.6607 0.4559
v  1.9003 3.3906 0.4559
v  0.9800 3.6607 -0.9800
v  1.3388 3.6607 -0.3587
v  0.3587 3.6607 -1.3388
v  -0.3587 3.6607 -1.3388
v  -0.9800 3.6607 -0.9800
v  -1.3388 3.6607 -0.3587
v  -1.3388 3.6607 0.3587
v  -0.9800 3.6607 0.9800
v  -0.3587 3.6607 1.3388
v  0.3587 3.6607 1.3388
v  0.9800 3.6607 0.9800
v  1.3388 3.6607 0.3587
v  1.8779 0.0000 -0.0000
v  1.9387 0.0000 0.1469
v  1.5501 3.4638 0.1469
v  1.4893 3.4638 -0.0000
v  2.0856 0.0000 0.2077
v  1.6970 3.4638 0.2077
v  2.2325 0.0000 0.1469
v  1.8439 3.4638 0.1469
v  2.2933 0.0000 -0.0000
v  1.9047 3.4638 -0.0000
v  2.2325 0.0000 -0.1469
v  1.8439 3.4638 -0.1469
v  2.0856 0.0000 -0.2077
v  1.6970 3.4638 -0.2077
v  1.9387 0.0000 -0.1469
v  1.5501 3.4638 -0.1469
v  0.0000 0.0000 1.8779
v  -0.1469 0.0000 1.9387
v  -0.1469 3.4638 1.5501
v  0.0000 3.4638 1.4893
v  -0.2077 0.0000 2.0856
v  -0.2077 3.4638 1.6970
v  -0.1469 0.0000 2.2325
v  -0.1469 3.4638 1.8439
v  0.0000 0.0000 2.2933
v  0.0000 3.4638 1.9047
v  0.1469 0.0000 2.2325
v  0.1469 3.4638 1.8439
v  0.2077 0.0000 2.0856
v  0.2077 3.4638 1.6970
v  0.1469 0.0000 1.9387
v  0.1469 3.4638 1.5501
v  -0.0000 0.0000 -1.8779
v  0.1469 0.0000 -1.9387
v  0.1469 3.4638 -1.5501
v  -0.0000 3.4638 -1.4893
v  0.2077 0.0000 -2.0856
v  0.2077 3.4638 -1.6970
v  0.1469 0.0000 -2.2325
v  0.1469 3.4638 -1.8439
v  -0.0000 0.0000 -2.2933
v  -0.0000 3.4638 -1.9047
v  -0.1469 0.0000 -2.2325
v  -0.1469 3.4638 -1.8439
v  -0.2077 0.0000 -2.0856
v  -0.2077 3.4638 -1.6970
v  -0.1469 0.0000 -1.9387
v  -0.1469 3.4638 -1.5501
v  -1.8778 0.0000 -0.0000
v  -1.9387 0.0000 -0.1469
v  -1.5501 3.4638 -0.1469
v  -1.4893 3.4638 -0.0000
v  -2.0856 0.0000 -0.2077
v  -1.6970 3.4638 -0.2077
v  -2.2325 0.0000 -0.1469
v  -1.8439 3.4638 -0.1469
v  -2.2933 0.0000 -0.0000
v  -1.9047 3.4638 -0.0000
v  -2.2325 0.0000 0.1469
v  -1.8439 3.4638 0.1469
v  -2.0856 0.0000 0.2077
v  -1.6970 3.4638 0.2077
v  -1.9387 0.0000 0.1469
v  -1.5501 3.4638 0.1469
# 144 vertices

vn 0.5000 0.0000 -0.8660
vn 0.7071 0.0000 -0.7071
vn 0.8660 0.0000 -0.5000
vn 0.3827 0.0000 -0.9239
vn -0.3827 0.0000 -0.9239
vn -0.8660 0.0000 -0.5000
vn -0.7071 0.0000 -0.7071
vn -0.5000 0.0000 -0.8660
vn -0.9239 0.0000 -0.3827
vn -0.9239 0.0000 0.3827
vn -0.5000 0.0000 0.8660
vn -0.7071 0.0000 0.7071
vn -0.8660 0.0000 0.5000
vn -0.3827 0.0000 0.9239
vn 0.3827 0.0000 0.9239
vn 0.8660 0.0000 0.5000
vn 0.7071 0.0000 0.7071
vn 0.5000 0.0000 0.8660
vn 0.9239 0.0000 0.3827
vn 0.9239 0.0000 -0.3827
vn 0.0000 -1.0000 -0.0000
vn 0.0000 1.0000 -0.0000
vn -0.3970 0.9116 0.1064
vn -0.2906 0.9116 0.2906
vn -0.1064 0.9116 0.3970
vn 0.1064 0.9116 0.3970
vn 0.2906 0.9116 0.2906
vn 0.3970 0.9116 0.1064
vn 0.3970 0.9116 -0.1064
vn 0.2906 0.9116 -0.2906
vn 0.1064 0.9116 -0.3970
vn -0.1064 0.9116 -0.3970
vn -0.2906 0.9116 -0.2906
vn -0.3970 0.9116 -0.1064
vn -0.9938 -0.1115 -0.0000
vn -0.6909 -0.0775 0.7188
vn -0.7179 -0.0805 0.6915
vn 0.0272 0.0031 0.9996
vn -0.0272 -0.0031 0.9996
vn 0.7179 0.0805 0.6915
vn 0.6909 0.0775 0.7188
vn 0.9938 0.1115 -0.0000
vn 0.9938 0.1115 0.0000
vn 0.7179 0.0805 -0.6915
vn 0.6909 0.0775 -0.7188
vn 0.0272 0.0031 -0.9996
vn -0.0272 -0.0031 -0.9996
vn -0.6909 -0.0775 -0.7188
vn -0.7179 -0.0805 -0.6915
vn 0.0000 -0.1115 -0.9938
vn -0.7188 -0.0775 -0.6909
vn -0.6915 -0.0805 -0.7179
vn -0.9996 0.0031 0.0272
vn -0.9996 -0.0031 -0.0272
vn -0.6915 0.0805 0.7179
vn -0.7188 0.0775 0.6909
vn 0.0000 0.1115 0.9938
vn -0.0000 0.1115 0.9938
vn 0.6915 0.0805 0.7179
vn 0.7188 0.0775 0.6909
vn 0.9996 0.0031 0.0272
vn 0.9996 -0.0031 -0.0272
vn 0.7188 -0.0775 -0.6909
vn 0.6915 -0.0805 -0.7179
vn -0.0000 -0.1115 0.9938
vn 0.7188 -0.0775 0.6909
vn 0.6915 -0.0805 0.7179
vn 0.9996 0.0031 -0.0272
vn 0.9996 -0.0031 0.0272
vn 0.6915 0.0805 -0.7179
vn 0.7188 0.0775 -0.6909
vn -0.0000 0.1115 -0.9938
vn 0.0000 0.1115 -0.9938
vn -0.6915 0.0805 -0.7179
vn -0.7188 0.0775 -0.6909
vn -0.9996 0.0031 -0.0272
vn -0.9996 -0.0031 0.0272
vn -0.7188 -0.0775 0.6909
vn -0.6915 -0.0805 0.7179
vn 0.9938 -0.1115 0.0000
vn 0.6909 -0.0775 -0.7188
vn 0.7179 -0.0805 -0.6915
vn -0.0272 0.0031 -0.9996
vn 0.0272 -0.0031 -0.9996
vn -0.7179 0.0805 -0.6915
vn -0.6909 0.0775 -0.7188
vn -0.9938 0.1115 0.0000
vn -0.9938 0.1115 -0.0000
vn -0.7179 0.0805 0.6915
vn -0.6909 0.0775 0.7188
vn -0.0272 0.0031 0.9996
vn 0.0272 -0.0031 0.9996
vn 0.6909 -0.0775 0.7188
vn 0.7179 -0.0805 0.6915
# 94 vertex normals

vt 0.7500 0.0000 1.0000
vt 0.8333 0.0000 1.0000
vt 0.8333 1.0000 1.0000
vt 0.7500 1.0000 1.0000
vt 0.9167 0.0000 1.0000
vt 0.9167 1.0000 1.0000
vt 0.9308 0.0000 1.0000
vt 0.9859 0.0000 1.0000
vt 0.9859 1.0000 1.0000
vt 0.9308 1.0000 1.0000
vt 0.0000 0.0000 1.0000
vt 0.0833 0.0000 1.0000
vt 0.0833 1.0000 1.0000
vt 0.0000 1.0000 1.0000
vt 0.1667 0.0000 1.0000
vt 0.1667 1.0000 1.0000
vt 0.1808 0.0000 1.0000
vt 0.2359 0.0000 1.0000
vt 0.2359 1.0000 1.0000
vt 0.1808 1.0000 1.0000
vt 0.2500 0.0000 1.0000
vt 0.3333 0.0000 1.0000
vt 0.3333 1.0000 1.0000
vt 0.2500 1.0000 1.0000
vt 0.4167 0.0000 1.0000
vt 0.4167 1.0000 1.0000
vt 0.4308 0.0000 1.0000
vt 0.4859 0.0000 1.0000
vt 0.4859 1.0000 1.0000
vt 0.4308 1.0000 1.0000
vt 0.5000 0.0000 1.0000
vt 0.5833 0.0000 1.0000
vt 0.5833 1.0000 1.0000
vt 0.5000 1.0000 1.0000
vt 0.6667 0.0000 1.0000
vt 0.6667 1.0000 1.0000
vt 0.6808 0.0000 1.0000
vt 0.7359 0.0000 1.0000
vt 0.7359 1.0000 1.0000
vt 0.6808 1.0000 1.0000
vt 0.7500 0.9330 -0.2500
vt 0.9330 0.7500 -0.2500
vt 1.0000 0.5000 -0.2500
vt 0.9330 0.2500 -0.2500
vt 0.7500 0.0670 -0.2500
vt 0.5000 0.0000 -0.2500
vt 0.2500 0.0670 -0.2500
vt 0.0670 0.2500 -0.2500
vt 0.0000 0.5000 -0.2500
vt 0.0670 0.7500 -0.2500
vt 0.2500 0.9330 -0.2500
vt 0.5000 1.0000 -0.2500
vt 0.5000 1.0000 0.2500
vt 0.2500 0.9330 0.2500
vt 0.0670 0.7500 0.2500
vt 0.0000 0.5000 0.2500
vt 0.0670 0.2500 0.2500
vt 0.2500 0.0670 0.2500
vt 0.5000 0.0000 0.2500
vt 0.7500 0.0670 0.2500
vt 0.9330 0.2500 0.2500
vt 1.0000 0.5000 0.2500
vt 0.9330 0.7500 0.2500
vt 0.7500 0.9330 0.2500
vt 1.0000 0.0000 1.0000
vt 1.0000 1.0000 1.0000
vt 0.8750 0.0000 1.0000
vt 0.8750 1.0000 1.0000
vt 0.1250 0.0000 1.0000
vt 0.1250 1.0000 1.0000
vt 0.3750 0.0000 1.0000
vt 0.3750 1.0000 1.0000
vt 0.6250 0.0000 1.0000
vt 0.6250 1.0000 1.0000
vt 0.8536 0.8536 -0.2500
vt 0.8536 0.1464 -0.2500
vt 0.1464 0.1464 -0.2500
vt 0.1464 0.8536 -0.2500
vt 0.1464 0.8536 0.2500
vt 0.1464 0.1464 0.2500
vt 0.8536 0.1464 0.2500
vt 0.8536 0.8536 0.2500
# 82 texture coords

g Saver
usemtl 01___Default
s 1073741824
f 1/1/1 2/2/2 3/3/2 4/4/1 
f 2/2/2 5/5/3 6/6/3 3/3/2 
f 7/7/4 8/8/5 9/9/5 10/10/4 
f 11/11/6 12/12/7 13/13/7 14/14/6 
f 12/12/7 15/15/8 16/16/8 13/13/7 
f 17/17/9 18/18/10 19/19/10 20/20/9 
f 21/21/11 22/22/12 23/23/12 24/24/11 
f 22/22/12 25/25/13 26/26/13 23/23/12 
f 27/27/14 28/28/15 29/29/15 30/30/14 
f 31/31/16 32/32/17 33/33/17 34/34/16 
f 32/32/17 35/35/18 36/36/18 33/33/17 
f 37/37/19 38/38/20 39/39/20 40/40/19 
s 4
f 35/41/21 32/42/21 31/43/21 25/44/21 22/45/21 21/46/21 15/47/21 12/48/21 11/49/21 5/50/21 2/51/21 1/52/21 
s 2147483648
f 41/53/22 42/54/22 43/55/22 44/56/22 45/57/22 46/58/22 47/59/22 48/60/22 49/61/22 50/62/22 51/63/22 52/64/22 
s 1073741824
f 6/6/3 5/5/3 53/5/20 54/6/20 
s 4
f 5/5/21 11/65/21 55/65/21 8/8/21 7/7/21 53/5/21 
s 1073741824
f 11/65/6 14/66/6 56/66/9 55/65/9 
s 2147483648
f 14/66/22 6/6/22 54/6/22 10/10/22 9/9/22 56/66/22 
s 1073741824
f 16/16/8 15/15/8 57/15/5 58/16/5 
s 4
f 15/15/21 21/21/21 59/21/21 18/18/21 17/17/21 57/15/21 
s 1073741824
f 21/21/11 24/24/11 60/24/14 59/21/14 
s 2147483648
f 24/24/22 16/16/22 58/16/22 20/20/22 19/19/22 60/24/22 
s 1073741824
f 26/26/13 25/25/13 61/25/10 62/26/10 
s 4
f 25/25/21 31/31/21 63/31/21 28/28/21 27/27/21 61/25/21 
s 1073741824
f 31/31/16 34/34/16 64/34/19 63/31/19 
s 2147483648
f 34/34/22 26/26/22 62/26/22 30/30/22 29/29/22 64/34/22 
s 1073741824
f 1/1/1 4/4/1 65/4/4 66/1/4 
s 2147483648
f 4/4/22 36/36/22 67/36/22 40/40/22 39/39/22 65/4/22 
s 1073741824
f 36/36/18 35/35/18 68/35/15 67/36/15 
s 4
f 35/35/21 1/1/21 66/1/21 38/38/21 37/37/21 68/35/21 
s 2147483648
f 4/53/22 3/54/22 69/54/22 70/53/22 
f 3/54/22 6/55/22 71/55/22 69/54/22 
f 6/55/22 14/56/22 72/56/22 71/55/22 
f 14/56/22 13/57/22 73/57/22 72/56/22 
f 13/57/22 16/58/22 74/58/22 73/57/22 
f 16/58/22 24/59/22 75/59/22 74/58/22 
f 24/59/22 23/60/22 76/60/22 75/59/22 
f 23/60/22 26/61/22 77/61/22 76/60/22 
f 26/61/22 34/62/22 78/62/22 77/61/22 
f 34/62/22 33/63/22 79/63/22 78/62/22 
f 33/63/22 36/64/22 80/64/22 79/63/22 
f 36/64/22 4/53/22 70/53/22 80/64/22 
s 4
f 70/53/23 69/54/24 42/54/24 41/53/23 
f 69/54/24 71/55/25 43/55/25 42/54/24 
f 71/55/25 72/56/26 44/56/26 43/55/25 
f 72/56/26 73/57/27 45/57/27 44/56/26 
f 73/57/27 74/58/28 46/58/28 45/57/27 
f 74/58/28 75/59/29 47/59/29 46/58/28 
f 75/59/29 76/60/30 48/60/30 47/59/29 
f 76/60/30 77/61/31 49/61/31 48/60/30 
f 77/61/31 78/62/32 50/62/32 49/61/31 
f 78/62/32 79/63/33 51/63/33 50/62/32 
f 79/63/33 80/64/34 52/64/34 51/63/33 
f 80/64/34 70/53/23 41/53/23 52/64/34 
s 1073741824
f 10/10/4 54/6/20 53/5/20 7/7/4 
f 8/8/5 55/65/9 56/66/9 9/9/5 
f 20/20/9 58/16/5 57/15/5 17/17/9 
f 18/18/10 59/21/14 60/24/14 19/19/10 
f 30/30/14 62/26/10 61/25/10 27/27/14 
f 28/28/15 63/31/19 64/34/19 29/29/15 
f 38/38/20 66/1/4 65/4/4 39/39/20 
f 40/40/19 67/36/15 68/35/15 37/37/19 
s 8
f 81/1/35 82/67/36 83/68/37 84/4/35 
f 82/67/36 85/65/38 86/66/39 83/68/37 
f 85/11/38 87/69/40 88/70/41 86/14/39 
f 87/69/40 89/21/42 90/24/43 88/70/41 
f 89/21/42 91/71/44 92/72/45 90/24/43 
f 91/71/44 93/31/46 94/34/47 92/72/45 
f 93/31/46 95/73/48 96/74/49 94/34/47 
f 95/73/48 81/1/35 84/4/35 96/74/49 
s 1
f 95/75/21 93/43/21 91/76/21 89/46/21 87/77/21 85/49/21 82/78/21 81/52/21 
f 84/53/22 83/79/22 86/56/22 88/80/22 90/59/22 92/81/22 94/62/22 96/82/22 
s 8
f 97/1/50 98/67/51 99/68/52 100/4/50 
f 98/67/51 101/65/53 102/66/54 99/68/52 
f 101/11/53 103/69/55 104/70/56 102/14/54 
f 103/69/55 105/21/57 106/24/58 104/70/56 
f 105/21/57 107/71/59 108/72/60 106/24/58 
f 107/71/59 109/31/61 110/34/62 108/72/60 
f 109/31/61 111/73/63 112/74/64 110/34/62 
f 111/73/63 97/1/50 100/4/50 112/74/64 
s 1
f 111/75/21 109/43/21 107/76/21 105/46/21 103/77/21 101/49/21 98/78/21 97/52/21 
f 100/53/22 99/79/22 102/56/22 104/80/22 106/59/22 108/81/22 110/62/22 112/82/22 
s 8
f 113/1/65 114/67/66 115/68/67 116/4/65 
f 114/67/66 117/65/68 118/66/69 115/68/67 
f 117/11/68 119/69/70 120/70/71 118/14/69 
f 119/69/70 121/21/72 122/24/73 120/70/71 
f 121/21/72 123/71/74 124/72/75 122/24/73 
f 123/71/74 125/31/76 126/34/77 124/72/75 
f 125/31/76 127/73/78 128/74/79 126/34/77 
f 127/73/78 113/1/65 116/4/65 128/74/79 
s 1
f 127/75/21 125/43/21 123/76/21 121/46/21 119/77/21 117/49/21 114/78/21 113/52/21 
f 116/53/22 115/79/22 118/56/22 120/80/22 122/59/22 124/81/22 126/62/22 128/82/22 
s 8
f 129/1/80 130/67/81 131/68/82 132/4/80 
f 130/67/81 133/65/83 134/66/84 131/68/82 
f 133/11/83 135/69/85 136/70/86 134/14/84 
f 135/69/85 137/21/87 138/24/88 136/70/86 
f 137/21/87 139/71/89 140/72/90 138/24/88 
f 139/71/89 141/31/91 142/34/92 140/72/90 
f 141/31/91 143/73/93 144/74/94 142/34/92 
f 143/73/93 129/1/80 132/4/80 144/74/94 
s 1
f 143/75/21 141/43/21 139/76/21 137/46/21 135/77/21 133/49/21 130/78/21 129/52/21 
f 132/53/22 131/79/22 134/56/22 136/80/22 138/59/22 140/81/22 142/62/22 144/82/22 
# 102 polygons

