# 3ds Max Wavefront OBJ Exporter v0.97b - (c)2007 guruware
# File Created: 23.03.2018 10:58:09

mtllib PRP_Dustbin2_1.mtl

#
# object Dustbin2
#

v  -14.0025 0.0000 9.9582
v  -14.0025 0.0000 -11.3343
v  13.0169 0.0000 -11.3343
v  13.0169 0.0000 9.9582
v  -13.6163 103.3670 11.2383
v  12.6307 103.3670 11.2383
v  10.2550 107.4114 -16.9735
v  -10.6673 107.4114 -16.9735
v  13.6842 22.0036 10.4841
v  15.1426 44.0073 11.6334
v  -16.1282 44.0073 11.6334
v  -14.6698 22.0036 10.4841
v  13.6842 22.0037 -11.8602
v  15.1426 44.0073 -13.0094
v  -14.6698 22.0036 -11.8602
v  -16.1282 44.0073 -13.0094
v  -22.2807 88.0146 16.4819
v  21.2951 88.0146 16.4819
v  24.1783 88.0146 18.6703
v  -25.1639 88.0146 18.6703
v  21.2951 88.0146 -17.8579
v  24.1783 88.0146 -20.0463
v  -22.2807 88.0146 -17.8579
v  -25.1639 88.0146 -20.0463
v  24.1783 92.7126 18.6703
v  -25.1639 92.7126 18.6703
v  24.1783 92.7126 -20.0463
v  -25.1639 92.7126 -20.0463
v  20.1300 92.7126 15.5975
v  -21.1156 92.7126 15.5975
v  20.1300 92.7126 -16.9735
v  -21.1156 92.7126 -16.9735
v  17.9662 66.0109 13.8585
v  -18.9518 66.0109 13.8585
v  17.9662 66.0109 -15.2346
v  -18.9518 66.0109 -15.2346
# 36 vertices

vn -0.0000 -1.0000 -0.0000
vn 0.0000 0.9969 0.0787
vn -0.0000 -0.0700 0.9975
vn 0.0000 -0.1412 0.9900
vn 0.9977 -0.0675 0.0000
vn 0.9907 -0.1362 0.0000
vn -0.0000 -0.0700 -0.9975
vn -0.0000 -0.1412 -0.9900
vn -0.9977 -0.0675 -0.0000
vn -0.9907 -0.1362 -0.0000
vn 0.0000 -1.0000 -0.0000
vn 0.0000 0.0000 1.0000
vn 1.0000 0.0000 -0.0000
vn 0.0000 0.0000 -1.0000
vn -1.0000 0.0000 -0.0000
vn 0.0000 1.0000 -0.0000
vn 0.0000 0.5965 0.8026
vn 0.7263 0.6873 0.0036
vn -0.7158 0.6983 -0.0008
vn 0.0000 -0.1980 0.9802
vn 0.0000 -0.2116 0.9773
vn -0.0000 -0.0434 0.9991
vn 0.9816 -0.1910 0.0000
vn 0.9789 -0.2042 -0.0000
vn 0.9816 -0.1910 -0.0000
vn 0.9991 -0.0418 0.0000
vn 0.9991 -0.0418 -0.0000
vn -0.0000 -0.1980 -0.9802
vn 0.0000 -0.2116 -0.9773
vn 0.0000 -0.1980 -0.9802
vn -0.0000 -0.0434 -0.9991
vn -0.9816 -0.1910 -0.0000
vn -0.9789 -0.2042 -0.0000
vn -0.9991 -0.0418 -0.0000
# 34 vertex normals

vt 1.0000 0.0000 0.0000
vt 1.0000 1.0000 0.0000
vt 0.0000 1.0000 0.0000
vt 0.0000 0.0000 0.0000
vt 1.0000 0.2500 0.0000
vt 1.0000 0.5000 0.0000
vt 0.0000 0.5000 0.0000
vt 0.0000 0.2500 0.0000
vt 1.0000 0.7500 0.0000
vt 0.0000 0.7500 0.0000
# 10 texture coords

g Dustbin2
usemtl _World2Chris_Hair
s 2
f 1/1/1 2/2/1 3/3/1 4/4/1 
s 4
f 5/4/2 6/1/2 7/2/2 8/3/2 
s 8
f 9/5/3 10/6/4 11/7/4 12/8/3 
s 16
f 13/5/5 14/6/6 10/7/6 9/8/5 
s 32
f 15/5/7 16/6/8 14/7/8 13/8/7 
s 64
f 12/5/9 11/6/10 16/7/10 15/8/9 
s off
f 17/4/11 18/1/11 19/1/11 20/4/11 
f 18/1/11 21/2/11 22/2/11 19/1/11 
f 21/2/11 23/3/11 24/3/11 22/2/11 
f 23/3/11 17/4/11 20/4/11 24/3/11 
f 20/4/12 19/1/12 25/1/12 26/4/12 
f 19/1/13 22/2/13 27/2/13 25/1/13 
f 22/2/14 24/3/14 28/3/14 27/2/14 
f 24/3/15 20/4/15 26/4/15 28/3/15 
f 26/4/16 25/1/16 29/1/16 30/4/16 
f 25/1/16 27/2/16 31/2/16 29/1/16 
f 27/2/16 28/3/16 32/3/16 31/2/16 
f 28/3/16 26/4/16 30/4/16 32/3/16 
f 30/4/17 29/1/17 6/1/17 5/4/17 
f 29/1/18 31/2/18 7/2/18 6/1/18 
f 31/2/14 32/3/14 8/3/14 7/2/14 
f 32/3/19 30/4/19 5/4/19 8/3/19 
s 8
f 33/9/20 18/2/21 17/3/21 34/10/20 
f 10/6/4 33/9/20 34/10/20 11/7/4 
f 12/8/3 1/4/22 4/1/22 9/5/3 
s 16
f 35/9/23 21/2/24 18/3/24 33/10/25 
f 14/6/6 35/9/23 33/10/25 10/7/6 
f 9/8/5 4/4/26 3/1/27 13/5/5 
s 32
f 36/9/28 23/2/29 21/3/29 35/10/30 
f 16/6/8 36/9/28 35/10/30 14/7/8 
f 13/8/7 3/4/31 2/1/31 15/5/7 
s 64
f 34/9/32 17/2/33 23/3/33 36/10/32 
f 11/6/10 34/9/32 36/10/32 16/7/10 
f 15/8/9 2/4/34 1/1/34 12/5/9 
# 34 polygons

