# 3ds Max Wavefront OBJ Exporter v0.97b - (c)2007 guruware
# File Created: 23.03.2018 10:44:11

mtllib PRP_Dustbin1_1.mtl

#
# object Dustbin1
#

v  11.3403 0.0000 0.0000
v  10.6564 0.0000 -3.8786
v  14.4532 31.2202 -5.2606
v  15.3808 31.2202 0.0000
v  8.6871 0.0000 -7.2894
v  11.7824 31.2202 -9.8866
v  5.6701 0.0000 -9.8210
v  7.6904 31.2202 -13.3202
v  1.9692 0.0000 -11.1680
v  2.6709 31.2202 -15.1472
v  -1.9692 0.0000 -11.1680
v  -2.6709 31.2202 -15.1472
v  -5.6701 0.0000 -9.8210
v  -7.6904 31.2202 -13.3202
v  -8.6872 0.0000 -7.2894
v  -11.7824 31.2202 -9.8866
v  -10.6564 0.0000 -3.8786
v  -14.4532 31.2202 -5.2606
v  -11.3403 0.0000 -0.0000
v  -15.3808 31.2202 -0.0000
v  -10.6564 0.0000 3.8786
v  -14.4532 31.2202 5.2605
v  -8.6872 0.0000 7.2894
v  -11.7824 31.2202 9.8866
v  -5.6701 0.0000 9.8210
v  -7.6904 31.2202 13.3202
v  -1.9692 0.0000 11.1680
v  -2.6709 31.2202 15.1471
v  1.9692 0.0000 11.1680
v  2.6708 31.2202 15.1472
v  5.6701 0.0000 9.8210
v  7.6904 31.2202 13.3202
v  8.6871 0.0000 7.2894
v  11.7824 31.2202 9.8866
v  10.6564 0.0000 3.8786
v  14.4532 31.2202 5.2606
v  9.9569 2.8550 -0.0000
v  9.3565 2.8550 -3.4055
v  7.6275 2.8550 -6.4002
v  4.9785 2.8550 -8.6230
v  1.7290 2.8550 -9.8057
v  -1.7290 2.8550 -9.8057
v  -4.9785 2.8550 -8.6230
v  -7.6275 2.8550 -6.4002
v  -9.3565 2.8550 -3.4055
v  -9.9569 2.8550 -0.0000
v  -9.3565 2.8550 3.4055
v  -7.6275 2.8550 6.4002
v  -4.9785 2.8550 8.6230
v  -1.7290 2.8550 9.8057
v  1.7290 2.8550 9.8057
v  4.9785 2.8550 8.6230
v  7.6275 2.8550 6.4002
v  9.3565 2.8550 3.4055
v  15.6942 34.7640 -0.0000
v  14.7477 34.7640 -5.3677
v  13.0364 33.6415 -4.7448
v  13.8730 33.6415 -0.0000
v  12.0224 34.7640 -10.0880
v  10.6273 33.6415 -8.9174
v  7.8471 34.7640 -13.5916
v  6.9365 33.6415 -12.0144
v  2.7253 34.7640 -15.4558
v  2.4090 33.6415 -13.6622
v  -2.7253 34.7640 -15.4558
v  -2.4090 33.6415 -13.6622
v  -7.8471 34.7640 -13.5916
v  -6.9365 33.6415 -12.0144
v  -12.0224 34.7640 -10.0880
v  -10.6273 33.6415 -8.9174
v  -14.7477 34.7640 -5.3677
v  -13.0364 33.6415 -4.7448
v  -15.6942 34.7640 -0.0000
v  -13.8730 33.6415 -0.0000
v  -14.7477 34.7640 5.3677
v  -13.0364 33.6415 4.7448
v  -12.0224 34.7640 10.0880
v  -10.6273 33.6415 8.9174
v  -7.8471 34.7640 13.5916
v  -6.9365 33.6415 12.0144
v  -2.7253 34.7640 15.4558
v  -2.4090 33.6415 13.6622
v  2.7253 34.7640 15.4558
v  2.4090 33.6415 13.6622
v  7.8471 34.7640 13.5916
v  6.9365 33.6415 12.0144
v  12.0224 34.7640 10.0880
v  10.6273 33.6415 8.9174
v  14.7477 34.7640 5.3677
v  13.0364 33.6415 4.7449
v  15.4902 31.0774 -5.6380
v  15.7846 33.4987 -5.7451
v  16.7976 33.4987 0.0000
v  16.4843 31.0774 0.0000
v  12.6277 31.0774 -10.5959
v  12.8677 33.4987 -10.7973
v  8.2421 31.0774 -14.2758
v  8.3988 33.4987 -14.5472
v  2.8625 31.0774 -16.2338
v  2.9169 33.4987 -16.5424
v  -2.8625 31.0774 -16.2338
v  -2.9169 33.4987 -16.5424
v  -8.2421 31.0774 -14.2758
v  -8.3988 33.4987 -14.5472
v  -12.6277 31.0774 -10.5959
v  -12.8677 33.4987 -10.7973
v  -15.4902 31.0774 -5.6380
v  -15.7846 33.4987 -5.7451
v  -16.4843 31.0774 -0.0000
v  -16.7976 33.4987 -0.0000
v  -15.4902 31.0774 5.6380
v  -15.7846 33.4987 5.7451
v  -12.6277 31.0774 10.5959
v  -12.8677 33.4987 10.7973
v  -8.2421 31.0774 14.2758
v  -8.3988 33.4987 14.5472
v  -2.8625 31.0774 16.2338
v  -2.9169 33.4987 16.5424
v  2.8625 31.0774 16.2338
v  2.9169 33.4987 16.5424
v  8.2421 31.0774 14.2758
v  8.3988 33.4987 14.5472
v  12.6277 31.0774 10.5959
v  12.8677 33.4987 10.7973
v  15.4901 31.0774 5.6380
v  15.7846 33.4987 5.7451
# 126 vertices

vn 0.9917 -0.1284 0.0000
vn 0.9319 -0.1284 -0.3392
vn 0.7597 -0.1284 -0.6375
vn 0.4959 -0.1284 -0.8589
vn 0.1722 -0.1284 -0.9767
vn -0.1722 -0.1284 -0.9767
vn -0.4959 -0.1284 -0.8589
vn -0.7597 -0.1284 -0.6375
vn -0.9319 -0.1284 -0.3392
vn -0.9917 -0.1284 -0.0000
vn -0.9319 -0.1284 0.3392
vn -0.7597 -0.1284 0.6375
vn -0.4959 -0.1284 0.8589
vn -0.1722 -0.1284 0.9767
vn 0.1722 -0.1284 0.9767
vn 0.4959 -0.1284 0.8589
vn 0.7597 -0.1284 0.6375
vn 0.9319 -0.1284 0.3392
vn 0.0000 -1.0000 -0.0000
vn 0.0000 1.0000 -0.0000
vn -0.5247 0.8513 -0.0000
vn -0.4930 0.8513 0.1795
vn -0.4019 0.8513 0.3373
vn -0.2623 0.8513 0.4544
vn -0.0911 0.8513 0.5167
vn 0.0911 0.8513 0.5167
vn 0.2623 0.8513 0.4544
vn 0.4019 0.8513 0.3373
vn 0.4930 0.8513 0.1795
vn 0.5247 0.8513 0.0000
vn 0.4930 0.8513 -0.1795
vn 0.4019 0.8513 -0.3373
vn 0.2623 0.8513 -0.4544
vn 0.0911 0.8513 -0.5167
vn -0.0911 0.8513 -0.5167
vn -0.2623 0.8513 -0.4544
vn -0.4019 0.8513 -0.3373
vn -0.4930 0.8513 -0.1795
vn -0.9920 0.1262 -0.0000
vn -0.9322 0.1262 0.3393
vn -0.7599 0.1262 0.6376
vn -0.4960 0.1262 0.8591
vn -0.1723 0.1262 0.9769
vn 0.1723 0.1262 0.9769
vn 0.4960 0.1262 0.8591
vn 0.7599 0.1262 0.6376
vn 0.9322 0.1262 0.3393
vn 0.9920 0.1262 0.0000
vn 0.9322 0.1262 -0.3393
vn 0.7599 0.1262 -0.6376
vn 0.4960 0.1262 -0.8591
vn 0.1723 0.1262 -0.9769
vn -0.1723 0.1262 -0.9769
vn -0.4960 0.1262 -0.8591
vn -0.7599 0.1262 -0.6377
vn -0.9322 0.1262 -0.3393
vn 0.7082 0.6573 -0.2578
vn 0.7537 0.6573 0.0000
vn 0.7082 0.6573 0.2578
vn 0.5773 0.6573 0.4844
vn 0.3768 0.6573 0.6527
vn 0.1309 0.6573 0.7422
vn -0.1309 0.6573 0.7422
vn -0.3768 0.6573 0.6527
vn -0.5773 0.6573 0.4844
vn -0.7082 0.6573 0.2578
vn -0.7537 0.6573 -0.0000
vn -0.7082 0.6573 -0.2578
vn -0.5773 0.6573 -0.4844
vn -0.3768 0.6573 -0.6527
vn -0.1309 0.6573 -0.7422
vn 0.1309 0.6573 -0.7422
vn 0.3768 0.6573 -0.6527
vn 0.5773 0.6573 -0.4844
vn -0.1283 -0.9915 0.0226
vn -0.1128 -0.9915 0.0651
vn -0.0838 -0.9915 0.0998
vn -0.0446 -0.9915 0.1224
vn 0.0000 -0.9915 0.1303
vn 0.0446 -0.9915 0.1224
vn 0.0838 -0.9915 0.0998
vn 0.1128 -0.9915 0.0651
vn 0.1283 -0.9915 0.0226
vn 0.1283 -0.9915 -0.0226
vn 0.1128 -0.9915 -0.0651
vn 0.0838 -0.9915 -0.0998
vn 0.0446 -0.9915 -0.1224
vn 0.0000 -0.9915 -0.1303
vn -0.0446 -0.9915 -0.1224
vn -0.0838 -0.9915 -0.0998
vn -0.1128 -0.9915 -0.0651
vn -0.1283 -0.9915 -0.0226
# 92 vertex normals

vt 0.7500 0.0000 1.0000
vt 0.8056 0.0000 1.0000
vt 0.8056 0.9280 1.0000
vt 0.7500 0.9280 1.0000
vt 0.8611 0.0000 1.0000
vt 0.8611 0.9280 1.0000
vt 0.9167 0.0000 1.0000
vt 0.9167 0.9280 1.0000
vt 0.9722 0.0000 1.0000
vt 0.9722 0.9280 1.0000
vt 1.0278 0.0000 1.0000
vt 1.0278 0.9280 1.0000
vt 0.0278 0.0000 1.0000
vt 0.0833 0.0000 1.0000
vt 0.0833 0.9280 1.0000
vt 0.0278 0.9280 1.0000
vt 0.1389 0.0000 1.0000
vt 0.1389 0.9280 1.0000
vt 0.1944 0.0000 1.0000
vt 0.1944 0.9280 1.0000
vt 0.2500 0.0000 1.0000
vt 0.2500 0.9280 1.0000
vt 0.3056 0.0000 1.0000
vt 0.3056 0.9280 1.0000
vt 0.3611 0.0000 1.0000
vt 0.3611 0.9280 1.0000
vt 0.4167 0.0000 1.0000
vt 0.4167 0.9280 1.0000
vt 0.4722 0.0000 1.0000
vt 0.4722 0.9280 1.0000
vt 0.5278 0.0000 1.0000
vt 0.5278 0.9280 1.0000
vt 0.5833 0.0000 1.0000
vt 0.5833 0.9280 1.0000
vt 0.6389 0.0000 1.0000
vt 0.6389 0.9280 1.0000
vt 0.6944 0.0000 1.0000
vt 0.6944 0.9280 1.0000
vt 0.6710 0.9698 -0.2500
vt 0.8214 0.8830 -0.2500
vt 0.9330 0.7500 -0.2500
vt 0.9924 0.5868 -0.2500
vt 0.9924 0.4132 -0.2500
vt 0.9330 0.2500 -0.2500
vt 0.8214 0.1170 -0.2500
vt 0.6710 0.0302 -0.2500
vt 0.5000 0.0000 -0.2500
vt 0.3290 0.0302 -0.2500
vt 0.1786 0.1170 -0.2500
vt 0.0670 0.2500 -0.2500
vt 0.0076 0.4132 -0.2500
vt 0.0076 0.5868 -0.2500
vt 0.0670 0.7500 -0.2500
vt 0.1786 0.8830 -0.2500
vt 0.3290 0.9698 -0.2500
vt 0.5000 1.0000 -0.2500
vt 0.5000 1.0000 0.2500
vt 0.3290 0.9698 0.2500
vt 0.1786 0.8830 0.2500
vt 0.0670 0.7500 0.2500
vt 0.0076 0.5868 0.2500
vt 0.0076 0.4132 0.2500
vt 0.0670 0.2500 0.2500
vt 0.1786 0.1170 0.2500
vt 0.3290 0.0302 0.2500
vt 0.5000 0.0000 0.2500
vt 0.6710 0.0302 0.2500
vt 0.8214 0.1170 0.2500
vt 0.9330 0.2500 0.2500
vt 0.9924 0.4132 0.2500
vt 0.9924 0.5868 0.2500
vt 0.9330 0.7500 0.2500
vt 0.8214 0.8830 0.2500
vt 0.6710 0.9698 0.2500
vt 0.8056 1.0000 1.0000
vt 0.7500 1.0000 1.0000
vt 0.8611 1.0000 1.0000
vt 0.9167 1.0000 1.0000
vt 0.9722 1.0000 1.0000
vt 1.0278 1.0000 1.0000
vt 0.0833 1.0000 1.0000
vt 0.0278 1.0000 1.0000
vt 0.1389 1.0000 1.0000
vt 0.1944 1.0000 1.0000
vt 0.2500 1.0000 1.0000
vt 0.3056 1.0000 1.0000
vt 0.3611 1.0000 1.0000
vt 0.4167 1.0000 1.0000
vt 0.4722 1.0000 1.0000
vt 0.5278 1.0000 1.0000
vt 0.5833 1.0000 1.0000
vt 0.6389 1.0000 1.0000
vt 0.6944 1.0000 1.0000
# 93 texture coords

g Dustbin1
usemtl _levelPlanky_bois
s 8
f 1/1/1 2/2/2 3/3/2 4/4/1 
f 2/2/2 5/5/3 6/6/3 3/3/2 
f 5/5/3 7/7/4 8/8/4 6/6/3 
f 7/7/4 9/9/5 10/10/5 8/8/4 
f 9/9/5 11/11/6 12/12/6 10/10/5 
f 11/13/6 13/14/7 14/15/7 12/16/6 
f 13/14/7 15/17/8 16/18/8 14/15/7 
f 15/17/8 17/19/9 18/20/9 16/18/8 
f 17/19/9 19/21/10 20/22/10 18/20/9 
f 19/21/10 21/23/11 22/24/11 20/22/10 
f 21/23/11 23/25/12 24/26/12 22/24/11 
f 23/25/12 25/27/13 26/28/13 24/26/12 
f 25/27/13 27/29/14 28/30/14 26/28/13 
f 27/29/14 29/31/15 30/32/15 28/30/14 
f 29/31/15 31/33/16 32/34/16 30/32/15 
f 31/33/16 33/35/17 34/36/17 32/34/16 
f 33/35/17 35/37/18 36/38/18 34/36/17 
f 35/37/18 1/1/1 4/4/1 36/38/18 
usemtl _level01___Default
s 1
f 35/39/19 33/40/19 31/41/19 29/42/19 27/43/19 25/44/19 23/45/19 21/46/19 19/47/19 17/48/19 15/49/19 13/50/19 11/51/19 9/52/19 7/53/19 5/54/19 2/55/19 1/56/19 
usemtl _leveldefault
f 37/57/20 38/58/20 39/59/20 40/60/20 41/61/20 42/62/20 43/63/20 44/64/20 45/65/20 46/66/20 47/67/20 48/68/20 49/69/20 50/70/20 51/71/20 52/72/20 53/73/20 54/74/20 
s 4
f 55/57/21 56/58/22 57/58/22 58/57/21 
f 56/58/22 59/59/23 60/59/23 57/58/22 
f 59/59/23 61/60/24 62/60/24 60/59/23 
f 61/60/24 63/61/25 64/61/25 62/60/24 
f 63/61/25 65/62/26 66/62/26 64/61/25 
f 65/62/26 67/63/27 68/63/27 66/62/26 
f 67/63/27 69/64/28 70/64/28 68/63/27 
f 69/64/28 71/65/29 72/65/29 70/64/28 
f 71/65/29 73/66/30 74/66/30 72/65/29 
f 73/66/30 75/67/31 76/67/31 74/66/30 
f 75/67/31 77/68/32 78/68/32 76/67/31 
f 77/68/32 79/69/33 80/69/33 78/68/32 
f 79/69/33 81/70/34 82/70/34 80/69/33 
f 81/70/34 83/71/35 84/71/35 82/70/34 
f 83/71/35 85/72/36 86/72/36 84/71/35 
f 85/72/36 87/73/37 88/73/37 86/72/36 
f 87/73/37 89/74/38 90/74/38 88/73/37 
f 89/74/38 55/57/21 58/57/21 90/74/38 
s 2
f 58/57/39 57/58/40 38/58/40 37/57/39 
f 57/58/40 60/59/41 39/59/41 38/58/40 
f 60/59/41 62/60/42 40/60/42 39/59/41 
f 62/60/42 64/61/43 41/61/43 40/60/42 
f 64/61/43 66/62/44 42/62/44 41/61/43 
f 66/62/44 68/63/45 43/63/45 42/62/44 
f 68/63/45 70/64/46 44/64/46 43/63/45 
f 70/64/46 72/65/47 45/65/47 44/64/46 
f 72/65/47 74/66/48 46/66/48 45/65/47 
f 74/66/48 76/67/49 47/67/49 46/66/48 
f 76/67/49 78/68/50 48/68/50 47/67/49 
f 78/68/50 80/69/51 49/69/51 48/68/50 
f 80/69/51 82/70/52 50/70/52 49/69/51 
f 82/70/52 84/71/53 51/71/53 50/70/52 
f 84/71/53 86/72/54 52/72/54 51/71/53 
f 86/72/54 88/73/55 53/73/55 52/72/54 
f 88/73/55 90/74/56 54/74/56 53/73/55 
f 90/74/56 58/57/39 37/57/39 54/74/56 
usemtl _levelPlanky_bois
s 8
f 91/3/2 92/75/2 93/76/1 94/4/1 
f 95/6/3 96/77/3 92/75/2 91/3/2 
f 97/8/4 98/78/4 96/77/3 95/6/3 
f 99/10/5 100/79/5 98/78/4 97/8/4 
f 101/12/6 102/80/6 100/79/5 99/10/5 
f 103/15/7 104/81/7 102/82/6 101/16/6 
f 105/18/8 106/83/8 104/81/7 103/15/7 
f 107/20/9 108/84/9 106/83/8 105/18/8 
f 109/22/10 110/85/10 108/84/9 107/20/9 
f 111/24/11 112/86/11 110/85/10 109/22/10 
f 113/26/12 114/87/12 112/86/11 111/24/11 
f 115/28/13 116/88/13 114/87/12 113/26/12 
f 117/30/14 118/89/14 116/88/13 115/28/13 
f 119/32/15 120/90/15 118/89/14 117/30/14 
f 121/34/16 122/91/16 120/90/15 119/32/15 
f 123/36/17 124/92/17 122/91/16 121/34/16 
f 125/38/18 126/93/18 124/92/17 123/36/17 
f 94/4/1 93/76/1 126/93/18 125/38/18 
s 1
f 56/75/57 55/76/58 93/76/58 92/75/57 
f 55/76/58 89/93/59 126/93/59 93/76/58 
f 89/93/59 87/92/60 124/92/60 126/93/59 
f 87/92/60 85/91/61 122/91/61 124/92/60 
f 85/91/61 83/90/62 120/90/62 122/91/61 
f 83/90/62 81/89/63 118/89/63 120/90/62 
f 81/89/63 79/88/64 116/88/64 118/89/63 
f 79/88/64 77/87/65 114/87/65 116/88/64 
f 77/87/65 75/86/66 112/86/66 114/87/65 
f 75/86/66 73/85/67 110/85/67 112/86/66 
f 73/85/67 71/84/68 108/84/68 110/85/67 
f 71/84/68 69/83/69 106/83/69 108/84/68 
f 69/83/69 67/81/70 104/81/70 106/83/69 
f 67/81/70 65/82/71 102/82/71 104/81/70 
f 65/80/71 63/79/72 100/79/72 102/80/71 
f 63/79/72 61/78/73 98/78/73 100/79/72 
f 61/78/73 59/77/74 96/77/74 98/78/73 
f 59/77/74 56/75/57 92/75/57 96/77/74 
s off
f 4/4/75 3/3/75 91/3/75 94/4/75 
f 3/3/76 6/6/76 95/6/76 91/3/76 
f 6/6/77 8/8/77 97/8/77 95/6/77 
f 8/8/78 10/10/78 99/10/78 97/8/78 
f 10/10/79 12/12/79 101/12/79 99/10/79 
f 12/16/80 14/15/80 103/15/80 101/16/80 
f 14/15/81 16/18/81 105/18/81 103/15/81 
f 16/18/82 18/20/82 107/20/82 105/18/82 
f 18/20/83 20/22/83 109/22/83 107/20/83 
f 20/22/84 22/24/84 111/24/84 109/22/84 
f 22/24/85 24/26/85 113/26/85 111/24/85 
f 24/26/86 26/28/86 115/28/86 113/26/86 
f 26/28/87 28/30/87 117/30/87 115/28/87 
f 28/30/88 30/32/88 119/32/88 117/30/88 
f 30/32/89 32/34/89 121/34/89 119/32/89 
f 32/34/90 34/36/90 123/36/90 121/34/90 
f 34/36/91 36/38/91 125/38/91 123/36/91 
f 36/38/92 4/4/92 94/4/92 125/38/92 
# 110 polygons

