# 3ds Max Wavefront OBJ Exporter v0.97b - (c)2007 guruware
# File Created: 23.03.2018 16:15:51

mtllib PRP_Milk_1.mtl

#
# object Milk
#

v  -2.0423 0.0000 1.8496
v  -2.0423 0.0000 -4.7044
v  3.8467 0.0000 -4.7044
v  3.8467 0.0000 1.8496
v  5.1318 25.7748 3.2798
v  -4.2821 25.7748 3.2798
v  5.1318 25.7748 -6.1347
v  -4.2821 25.7748 -6.1347
v  5.6032 31.4349 -1.4274
v  -4.8411 31.5670 -1.4274
v  3.8422 31.4097 -1.4274
v  -1.2275 31.4896 -1.4274
# 12 vertices

vn 0.0000 -1.0000 -0.0000
vn 0.0000 -0.0842 0.9964
vn 0.9971 -0.0757 -0.0000
vn 0.0000 -0.0842 -0.9964
vn -0.9914 -0.1312 -0.0000
vn 0.0034 0.7813 0.6241
vn 0.0034 0.7813 -0.6241
vn 0.9443 0.3291 -0.0000
vn -0.7755 0.6313 -0.0000
# 9 vertex normals

vt 1.0000 0.0000 0.0000
vt 1.0000 1.0000 0.0000
vt 0.0000 1.0000 0.0000
vt 0.0000 0.0000 0.0000
vt 1.0000 0.5000 0.0000
vt 0.0000 0.5000 0.0000
vt 0.5000 1.0000 0.0000
# 7 texture coords

g Milk
usemtl _World2Chris_Hair
s 2
f 1/1/1 2/2/1 3/3/1 4/4/1 
s 8
f 1/4/2 4/1/2 5/2/2 6/3/2 
s 16
f 4/4/3 3/1/3 7/2/3 5/3/3 
s 32
f 3/4/4 2/1/4 8/2/4 7/3/4 
s 64
f 2/4/5 1/1/5 6/2/5 8/3/5 
s off
f 6/4/6 5/1/6 9/5/6 10/6/6 
f 7/2/7 8/3/7 10/6/7 9/5/7 
f 5/3/8 7/2/8 11/7/8 
f 8/3/9 6/2/9 12/7/9 
# 7 polygons - 2 triangles

