# 3ds Max Wavefront OBJ Exporter v0.97b - (c)2007 guruware
# File Created: 16.02.2018 10:15:45

mtllib Wheel.mtl

#
# object Cylinder007
#

v  -1.0518 4.5142 -0.0000
v  -1.0518 4.2933 1.3950
v  -0.6721 4.4586 1.4487
v  -0.6721 4.6880 -0.0000
v  -1.0518 3.6521 2.6534
v  -0.6721 3.7927 2.7556
v  -1.0518 2.6534 3.6521
v  -0.6721 2.7556 3.7927
v  -1.0518 1.3950 4.2933
v  -0.6721 1.4487 4.4586
v  -1.0518 0.0000 4.5142
v  -0.6721 0.0000 4.6880
v  -1.0518 -1.3950 4.2933
v  -0.6721 -1.4487 4.4586
v  -1.0518 -2.6534 3.6521
v  -0.6721 -2.7556 3.7927
v  -1.0518 -3.6521 2.6534
v  -0.6721 -3.7927 2.7556
v  -1.0518 -4.2933 1.3950
v  -0.6721 -4.4586 1.4487
v  -1.0518 -4.5142 -0.0000
v  -0.6721 -4.6880 -0.0000
v  -1.0518 -4.2933 -1.3950
v  -0.6721 -4.4586 -1.4487
v  -1.0518 -3.6521 -2.6534
v  -0.6721 -3.7927 -2.7556
v  -1.0518 -2.6534 -3.6521
v  -0.6721 -2.7556 -3.7927
v  -1.0518 -1.3950 -4.2933
v  -0.6721 -1.4487 -4.4586
v  -1.0518 0.0000 -4.5142
v  -0.6721 0.0000 -4.6880
v  -1.0518 1.3950 -4.2933
v  -0.6721 1.4487 -4.4586
v  -1.0518 2.6534 -3.6521
v  -0.6721 2.7556 -3.7927
v  -1.0518 3.6521 -2.6534
v  -0.6721 3.7927 -2.7556
v  -1.0518 4.2933 -1.3950
v  -0.6721 4.4586 -1.4487
v  -0.7409 3.6831 -0.0000
v  -0.7409 3.5028 1.1381
v  -0.7409 2.9797 2.1648
v  -0.7409 2.1648 2.9797
v  -0.7409 1.1381 3.5028
v  -0.7409 0.0000 3.6831
v  -0.7409 -1.1381 3.5028
v  -0.7409 -2.1648 2.9797
v  -0.7409 -2.9797 2.1648
v  -0.7409 -3.5028 1.1381
v  -0.7409 -3.6831 -0.0000
v  -0.7409 -3.5028 -1.1381
v  -0.7409 -2.9797 -2.1648
v  -0.7409 -2.1648 -2.9797
v  -0.7409 -1.1381 -3.5028
v  -0.7409 0.0000 -3.6831
v  -0.7409 1.1381 -3.5028
v  -0.7409 2.1649 -2.9797
v  -0.7409 2.9797 -2.1648
v  -0.7409 3.5028 -1.1381
v  0.8885 8.6255 2.8026
v  1.0518 8.6255 2.8026
v  1.0518 9.0694 0.0000
v  0.8885 9.0694 0.0000
v  0.8885 7.3373 5.3308
v  1.0518 7.3373 5.3308
v  0.8885 5.3308 7.3373
v  1.0518 5.3308 7.3373
v  0.8885 2.8026 8.6255
v  1.0518 2.8026 8.6255
v  0.8885 0.0000 9.0694
v  1.0518 0.0000 9.0694
v  0.8885 -2.8026 8.6255
v  1.0518 -2.8026 8.6255
v  0.8885 -5.3309 7.3373
v  1.0518 -5.3309 7.3373
v  0.8885 -7.3373 5.3309
v  1.0518 -7.3373 5.3309
v  0.8885 -8.6255 2.8026
v  1.0518 -8.6255 2.8026
v  0.8885 -9.0694 -0.0000
v  1.0518 -9.0694 -0.0000
v  0.8885 -8.6255 -2.8026
v  1.0518 -8.6255 -2.8026
v  0.8885 -7.3373 -5.3309
v  1.0518 -7.3373 -5.3309
v  0.8885 -5.3308 -7.3373
v  1.0518 -5.3308 -7.3373
v  0.8885 -2.8026 -8.6255
v  1.0518 -2.8026 -8.6255
v  0.8885 0.0000 -9.0694
v  1.0518 0.0000 -9.0694
v  0.8885 2.8026 -8.6255
v  1.0518 2.8026 -8.6255
v  0.8885 5.3309 -7.3373
v  1.0518 5.3309 -7.3373
v  0.8885 7.3373 -5.3308
v  1.0518 7.3373 -5.3308
v  0.8885 8.6255 -2.8026
v  1.0518 8.6255 -2.8026
v  -0.3813 5.6285 1.8288
v  -0.3813 5.9182 -0.0000
v  0.2173 7.4993 -0.0000
v  0.2173 7.1322 2.3174
v  -0.3813 5.6285 -1.8288
v  0.2173 7.1322 -2.3174
v  -0.3813 4.7879 -3.4786
v  0.2173 6.0670 -4.4080
v  -0.3813 3.4786 -4.7879
v  0.2173 4.4080 -6.0670
v  -0.3813 1.8288 -5.6285
v  0.2173 2.3174 -7.1322
v  -0.3813 0.0000 -5.9182
v  0.2173 0.0000 -7.4993
v  -0.3813 -1.8288 -5.6285
v  0.2173 -2.3174 -7.1322
v  -0.3813 -3.4786 -4.7879
v  0.2173 -4.4079 -6.0670
v  -0.3813 -4.7879 -3.4786
v  0.2173 -6.0670 -4.4080
v  -0.3813 -5.6285 -1.8288
v  0.2173 -7.1322 -2.3174
v  -0.3813 -5.9182 -0.0000
v  0.2173 -7.4993 0.0000
v  -0.3813 -5.6285 1.8288
v  0.2173 -7.1322 2.3174
v  -0.3813 -4.7879 3.4786
v  0.2173 -6.0670 4.4080
v  -0.3813 -3.4786 4.7879
v  0.2173 -4.4079 6.0670
v  -0.3813 -1.8288 5.6285
v  0.2173 -2.3174 7.1322
v  -0.3813 0.0000 5.9182
v  0.2173 0.0000 7.4992
v  -0.3813 1.8288 5.6285
v  0.2173 2.3174 7.1322
v  -0.3813 3.4786 4.7879
v  0.2173 4.4079 6.0670
v  -0.3813 4.7879 3.4786
v  0.2173 6.0670 4.4079
v  -0.2521 6.3698 2.0697
v  -0.2521 6.6976 0.0000
v  -0.2521 5.4185 3.9368
v  -0.2521 3.9368 5.4185
v  -0.2521 2.0697 6.3698
v  -0.2521 0.0000 6.6976
v  -0.2521 -2.0697 6.3698
v  -0.2521 -3.9368 5.4185
v  -0.2521 -5.4185 3.9368
v  -0.2521 -6.3698 2.0697
v  -0.2521 -6.6976 0.0000
v  -0.2521 -6.3698 -2.0697
v  -0.2521 -5.4185 -3.9368
v  -0.2521 -3.9368 -5.4185
v  -0.2521 -2.0697 -6.3698
v  -0.2521 0.0000 -6.6976
v  -0.2521 2.0697 -6.3698
v  -0.2521 3.9368 -5.4185
v  -0.2521 5.4185 -3.9368
v  -0.2521 6.3698 -2.0697
v  0.3967 8.2948 0.0000
v  0.3967 7.8889 2.5632
v  0.3967 6.7107 4.8756
v  0.3967 4.8756 6.7107
v  0.3967 2.5632 7.8889
v  0.3967 0.0000 8.2948
v  0.3967 -2.5632 7.8889
v  0.3967 -4.8756 6.7107
v  0.3967 -6.7107 4.8756
v  0.3967 -7.8889 2.5633
v  0.3967 -8.2948 0.0000
v  0.3967 -7.8889 -2.5632
v  0.3967 -6.7107 -4.8756
v  0.3967 -4.8756 -6.7107
v  0.3967 -2.5632 -7.8889
v  0.3967 0.0000 -8.2948
v  0.3967 2.5633 -7.8889
v  0.3967 4.8756 -6.7107
v  0.3967 6.7107 -4.8756
v  0.3967 7.8889 -2.5632
# 180 vertices

vn -0.4163 0.9092 0.0000
vn -0.4163 0.8647 0.2810
vn -0.4163 0.7356 0.5344
vn -0.4163 0.5344 0.7356
vn -0.4163 0.2810 0.8647
vn -0.4163 -0.0000 0.9092
vn -0.4163 -0.2810 0.8647
vn -0.4163 -0.5344 0.7356
vn -0.4163 -0.7356 0.5344
vn -0.4163 -0.8647 0.2810
vn -0.4163 -0.9092 -0.0000
vn -0.4163 -0.8647 -0.2810
vn -0.4163 -0.7356 -0.5344
vn -0.4163 -0.5344 -0.7356
vn -0.4163 -0.2810 -0.8647
vn -0.4163 0.0000 -0.9092
vn -0.4163 0.2810 -0.8647
vn -0.4163 0.5344 -0.7356
vn -0.4163 0.7356 -0.5344
vn -0.4163 0.8647 -0.2810
vn -1.0000 -0.0000 0.0000
vn -1.0000 0.0000 0.0000
vn 1.0000 0.0000 -0.0000
vn 0.0000 0.9511 0.3090
vn -0.0000 1.0000 0.0000
vn 0.0000 0.8090 0.5878
vn 0.0000 0.5878 0.8090
vn 0.0000 0.3090 0.9511
vn 0.0000 0.0000 1.0000
vn 0.0000 -0.3090 0.9511
vn 0.0000 -0.5878 0.8090
vn 0.0000 -0.8090 0.5878
vn 0.0000 -0.9511 0.3090
vn 0.0000 -1.0000 0.0000
vn -0.0000 -0.9511 -0.3090
vn -0.0000 -0.8090 -0.5878
vn -0.0000 -0.5878 -0.8090
vn -0.0000 -0.3090 -0.9511
vn -0.0000 0.0000 -1.0000
vn -0.0000 0.3090 -0.9511
vn -0.0000 0.5878 -0.8090
vn -0.0000 0.8090 -0.5878
vn -0.0000 0.9511 -0.3090
vn 0.9636 -0.2541 -0.0826
vn 0.9636 -0.2672 -0.0000
vn 0.9086 -0.4177 -0.0000
vn 0.9086 -0.3973 -0.1291
vn 0.9636 -0.2541 0.0826
vn 0.9086 -0.3973 0.1291
vn 0.9637 -0.2161 0.1570
vn 0.9086 -0.3380 0.2455
vn 0.9636 -0.1570 0.2161
vn 0.9086 -0.2455 0.3380
vn 0.9637 -0.0826 0.2541
vn 0.9086 -0.1291 0.3973
vn 0.9637 0.0000 0.2672
vn 0.9086 0.0000 0.4177
vn 0.9636 0.0826 0.2541
vn 0.9086 0.1291 0.3973
vn 0.9636 0.1570 0.2161
vn 0.9086 0.2455 0.3380
vn 0.9636 0.2161 0.1570
vn 0.9086 0.3380 0.2455
vn 0.9636 0.2541 0.0826
vn 0.9086 0.3973 0.1291
vn 0.9636 0.2672 0.0000
vn 0.9086 0.4177 -0.0000
vn 0.9636 0.2541 -0.0826
vn 0.9086 0.3973 -0.1291
vn 0.9636 0.2161 -0.1570
vn 0.9086 0.3380 -0.2455
vn 0.9636 0.1570 -0.2161
vn 0.9086 0.2455 -0.3380
vn 0.9636 0.0826 -0.2541
vn 0.9086 0.1291 -0.3973
vn 0.9636 0.0000 -0.2672
vn 0.9086 0.0000 -0.4177
vn 0.9636 -0.0826 -0.2541
vn 0.9086 -0.1291 -0.3973
vn 0.9636 -0.1570 -0.2161
vn 0.9086 -0.2455 -0.3379
vn 0.9636 -0.2161 -0.1570
vn 0.9086 -0.3380 -0.2455
vn -0.9788 0.2046 0.0000
vn -0.9788 0.1946 0.0632
vn -0.9540 0.2852 0.0927
vn -0.9540 0.2998 0.0000
vn -0.9788 0.1655 0.1203
vn -0.9540 0.2426 0.1762
vn -0.9788 0.1203 0.1655
vn -0.9540 0.1762 0.2426
vn -0.9788 0.0632 0.1946
vn -0.9540 0.0927 0.2852
vn -0.9788 -0.0000 0.2046
vn -0.9540 0.0000 0.2998
vn -0.9788 -0.0632 0.1946
vn -0.9540 -0.0927 0.2852
vn -0.9788 -0.1203 0.1655
vn -0.9540 -0.1762 0.2426
vn -0.9788 -0.1655 0.1203
vn -0.9540 -0.2426 0.1762
vn -0.9788 -0.1946 0.0632
vn -0.9540 -0.2852 0.0927
vn -0.9788 -0.2046 0.0000
vn -0.9540 -0.2998 0.0000
vn -0.9788 -0.1946 -0.0632
vn -0.9540 -0.2852 -0.0927
vn -0.9788 -0.1655 -0.1203
vn -0.9540 -0.2426 -0.1762
vn -0.9788 -0.1203 -0.1655
vn -0.9540 -0.1762 -0.2426
vn -0.9788 -0.0632 -0.1946
vn -0.9540 -0.0927 -0.2852
vn -0.9788 0.0000 -0.2046
vn -0.9540 0.0000 -0.2998
vn -0.9788 0.0632 -0.1946
vn -0.9540 0.0927 -0.2852
vn -0.9788 0.1203 -0.1655
vn -0.9540 0.1762 -0.2426
vn -0.9788 0.1655 -0.1203
vn -0.9540 0.2426 -0.1762
vn -0.9788 0.1946 -0.0632
vn -0.9540 0.2852 -0.0927
vn 0.8830 -0.4693 -0.0000
vn 0.8830 -0.4463 -0.1450
vn 0.8830 -0.4463 0.1450
vn 0.8830 -0.3797 0.2758
vn 0.8830 -0.2758 0.3797
vn 0.8830 -0.1450 0.4463
vn 0.8830 -0.0000 0.4693
vn 0.8830 0.1450 0.4463
vn 0.8830 0.2758 0.3797
vn 0.8830 0.3797 0.2758
vn 0.8830 0.4463 0.1450
vn 0.8830 0.4693 -0.0000
vn 0.8830 0.4463 -0.1450
vn 0.8830 0.3797 -0.2758
vn 0.8830 0.2758 -0.3797
vn 0.8830 0.1450 -0.4463
vn 0.8830 -0.0000 -0.4693
vn 0.8830 -0.1450 -0.4463
vn 0.8830 -0.2758 -0.3797
vn 0.8830 -0.3797 -0.2758
vn -0.8853 0.4651 0.0000
vn -0.8853 0.4423 0.1437
vn -0.8442 0.5098 0.1656
vn -0.8442 0.5360 0.0000
vn -0.8853 0.3763 0.2734
vn -0.8442 0.4336 0.3151
vn -0.8853 0.2734 0.3763
vn -0.8442 0.3151 0.4336
vn -0.8853 0.1437 0.4423
vn -0.8442 0.1656 0.5098
vn -0.8853 0.0000 0.4651
vn -0.8442 0.0000 0.5360
vn -0.8853 -0.1437 0.4423
vn -0.8442 -0.1656 0.5098
vn -0.8853 -0.2734 0.3763
vn -0.8442 -0.3151 0.4336
vn -0.8853 -0.3763 0.2734
vn -0.8442 -0.4336 0.3151
vn -0.8853 -0.4423 0.1437
vn -0.8442 -0.5098 0.1656
vn -0.8853 -0.4651 0.0000
vn -0.8442 -0.5360 0.0000
vn -0.8853 -0.4423 -0.1437
vn -0.8442 -0.5098 -0.1656
vn -0.8853 -0.3763 -0.2734
vn -0.8442 -0.4336 -0.3151
vn -0.8853 -0.2734 -0.3763
vn -0.8442 -0.3151 -0.4336
vn -0.8853 -0.1437 -0.4423
vn -0.8442 -0.1656 -0.5098
vn -0.8853 0.0000 -0.4651
vn -0.8442 0.0000 -0.5360
vn -0.8853 0.1437 -0.4423
vn -0.8442 0.1656 -0.5098
vn -0.8853 0.2734 -0.3763
vn -0.8442 0.3151 -0.4336
vn -0.8853 0.3763 -0.2734
vn -0.8442 0.4336 -0.3151
vn -0.8853 0.4423 -0.1437
vn -0.8442 0.5098 -0.1656
vn 0.9873 -0.1511 -0.0491
vn 0.9873 -0.1589 -0.0000
vn 0.9873 -0.1285 -0.0934
vn 0.9873 -0.0934 -0.1285
vn 0.9873 -0.0491 -0.1511
vn 0.9873 0.0000 -0.1589
vn 0.9873 0.0491 -0.1511
vn 0.9873 0.0934 -0.1285
vn 0.9873 0.1285 -0.0934
vn 0.9873 0.1511 -0.0491
vn 0.9873 0.1589 -0.0000
vn 0.9873 0.1511 0.0491
vn 0.9873 0.1285 0.0934
vn 0.9873 0.0934 0.1285
vn 0.9873 0.0491 0.1511
vn 0.9873 -0.0000 0.1589
vn 0.9873 -0.0491 0.1511
vn 0.9873 -0.0934 0.1285
vn 0.9873 -0.1285 0.0934
vn 0.9873 -0.1511 0.0491
# 203 vertex normals

vt 0.7500 0.0000 1.0000
vt 0.8000 0.0000 1.0000
vt 0.8000 0.5000 1.0000
vt 0.7500 0.5000 1.0000
vt 0.8500 0.0000 1.0000
vt 0.8500 0.5000 1.0000
vt 0.9000 0.0000 1.0000
vt 0.9000 0.5000 1.0000
vt 0.9500 0.0000 1.0000
vt 0.9500 0.5000 1.0000
vt 1.0000 0.0000 1.0000
vt 1.0000 0.5000 1.0000
vt 0.0000 0.0000 1.0000
vt 0.0500 0.0000 1.0000
vt 0.0500 0.5000 1.0000
vt 0.0000 0.5000 1.0000
vt 0.1000 0.0000 1.0000
vt 0.1000 0.5000 1.0000
vt 0.1500 0.0000 1.0000
vt 0.1500 0.5000 1.0000
vt 0.2000 0.0000 1.0000
vt 0.2000 0.5000 1.0000
vt 0.2500 0.0000 1.0000
vt 0.2500 0.5000 1.0000
vt 0.3000 0.0000 1.0000
vt 0.3000 0.5000 1.0000
vt 0.3500 0.0000 1.0000
vt 0.3500 0.5000 1.0000
vt 0.4000 0.0000 1.0000
vt 0.4000 0.5000 1.0000
vt 0.4500 0.0000 1.0000
vt 0.4500 0.5000 1.0000
vt 0.5000 0.0000 1.0000
vt 0.5000 0.5000 1.0000
vt 0.5500 0.0000 1.0000
vt 0.5500 0.5000 1.0000
vt 0.6000 0.0000 1.0000
vt 0.6000 0.5000 1.0000
vt 0.6500 0.0000 1.0000
vt 0.6500 0.5000 1.0000
vt 0.7000 0.0000 1.0000
vt 0.7000 0.5000 1.0000
vt 0.6545 0.9755 -0.2500
vt 0.7939 0.9045 -0.2500
vt 0.9045 0.7939 -0.2500
vt 0.9755 0.6545 -0.2500
vt 1.0000 0.5000 -0.2500
vt 0.9755 0.3455 -0.2500
vt 0.9045 0.2061 -0.2500
vt 0.7939 0.0955 -0.2500
vt 0.6545 0.0245 -0.2500
vt 0.5000 0.0000 -0.2500
vt 0.3455 0.0245 -0.2500
vt 0.2061 0.0955 -0.2500
vt 0.0955 0.2061 -0.2500
vt 0.0245 0.3455 -0.2500
vt 0.0000 0.5000 -0.2500
vt 0.0245 0.6545 -0.2500
vt 0.0955 0.7939 -0.2500
vt 0.2061 0.9045 -0.2500
vt 0.3455 0.9755 -0.2500
vt 0.5000 1.0000 -0.2500
vt 0.5000 1.0000 0.2500
vt 0.3455 0.9755 0.2500
vt 0.2061 0.9045 0.2500
vt 0.0955 0.7939 0.2500
vt 0.0245 0.6545 0.2500
vt 0.0000 0.5000 0.2500
vt 0.0245 0.3455 0.2500
vt 0.0955 0.2061 0.2500
vt 0.2061 0.0955 0.2500
vt 0.3455 0.0245 0.2500
vt 0.5000 0.0000 0.2500
vt 0.6545 0.0245 0.2500
vt 0.7939 0.0955 0.2500
vt 0.9045 0.2061 0.2500
vt 0.9755 0.3455 0.2500
vt 1.0000 0.5000 0.2500
vt 0.9755 0.6545 0.2500
vt 0.9045 0.7939 0.2500
vt 0.7939 0.9045 0.2500
vt 0.6545 0.9755 0.2500
vt 0.8000 1.0000 1.0000
vt 0.7500 1.0000 1.0000
vt 0.8500 1.0000 1.0000
vt 0.9000 1.0000 1.0000
vt 0.9500 1.0000 1.0000
vt 1.0000 1.0000 1.0000
vt 0.0500 1.0000 1.0000
vt 0.0000 1.0000 1.0000
vt 0.1000 1.0000 1.0000
vt 0.1500 1.0000 1.0000
vt 0.2000 1.0000 1.0000
vt 0.2500 1.0000 1.0000
vt 0.3000 1.0000 1.0000
vt 0.3500 1.0000 1.0000
vt 0.4000 1.0000 1.0000
vt 0.4500 1.0000 1.0000
vt 0.5000 1.0000 1.0000
vt 0.5500 1.0000 1.0000
vt 0.6000 1.0000 1.0000
vt 0.6500 1.0000 1.0000
vt 0.7000 1.0000 1.0000
# 103 texture coords

g Cylinder007
usemtl 01___Default
s 1
f 1/1/1 2/2/2 3/3/2 4/4/1 
f 2/2/2 5/5/3 6/6/3 3/3/2 
f 5/5/3 7/7/4 8/8/4 6/6/3 
f 7/7/4 9/9/5 10/10/5 8/8/4 
f 9/9/5 11/11/6 12/12/6 10/10/5 
f 11/13/6 13/14/7 14/15/7 12/16/6 
f 13/14/7 15/17/8 16/18/8 14/15/7 
f 15/17/8 17/19/9 18/20/9 16/18/8 
f 17/19/9 19/21/10 20/22/10 18/20/9 
f 19/21/10 21/23/11 22/24/11 20/22/10 
f 21/23/11 23/25/12 24/26/12 22/24/11 
f 23/25/12 25/27/13 26/28/13 24/26/12 
f 25/27/13 27/29/14 28/30/14 26/28/13 
f 27/29/14 29/31/15 30/32/15 28/30/14 
f 29/31/15 31/33/16 32/34/16 30/32/15 
f 31/33/16 33/35/17 34/36/17 32/34/16 
f 33/35/17 35/37/18 36/38/18 34/36/17 
f 35/37/18 37/39/19 38/40/19 36/38/18 
f 37/39/19 39/41/20 40/42/20 38/40/19 
f 39/41/20 1/1/1 4/4/1 40/42/20 
s 2
f 39/43/21 37/44/21 35/45/22 33/46/21 31/47/21 29/48/21 27/49/21 25/50/21 23/51/21 21/52/21 19/53/21 17/54/21 15/55/21 13/56/21 11/57/21 9/58/21 7/59/22 5/60/21 2/61/21 1/62/21 
f 41/63/23 42/64/23 43/65/23 44/66/23 45/67/23 46/68/23 47/69/23 48/70/23 49/71/23 50/72/23 51/73/23 52/74/23 53/75/23 54/76/23 55/77/23 56/78/23 57/79/23 58/80/23 59/81/23 60/82/23 
f 61/3/24 62/83/24 63/84/25 64/4/25 
f 65/6/26 66/85/26 62/83/24 61/3/24 
f 67/8/27 68/86/27 66/85/26 65/6/26 
f 69/10/28 70/87/28 68/86/27 67/8/27 
f 71/12/29 72/88/29 70/87/28 69/10/28 
f 73/15/30 74/89/30 72/90/29 71/16/29 
f 75/18/31 76/91/31 74/89/30 73/15/30 
f 77/20/32 78/92/32 76/91/31 75/18/31 
f 79/22/33 80/93/33 78/92/32 77/20/32 
f 81/24/34 82/94/34 80/93/33 79/22/33 
f 83/26/35 84/95/35 82/94/34 81/24/34 
f 85/28/36 86/96/36 84/95/35 83/26/35 
f 87/30/37 88/97/37 86/96/36 85/28/36 
f 89/32/38 90/98/38 88/97/37 87/30/37 
f 91/34/39 92/99/39 90/98/38 89/32/38 
f 93/36/40 94/100/40 92/99/39 91/34/39 
f 95/38/41 96/101/41 94/100/40 93/36/40 
f 97/40/42 98/102/42 96/101/41 95/38/41 
f 99/42/43 100/103/43 98/102/42 97/40/42 
f 64/4/25 63/84/25 100/103/43 99/42/43 
s 1
f 101/83/44 102/84/45 103/84/46 104/83/47 
f 102/84/45 105/103/48 106/103/49 103/84/46 
f 105/103/48 107/102/50 108/102/51 106/103/49 
f 107/102/50 109/101/52 110/101/53 108/102/51 
f 109/101/52 111/100/54 112/100/55 110/101/53 
f 111/100/54 113/99/56 114/99/57 112/100/55 
f 113/99/56 115/98/58 116/98/59 114/99/57 
f 115/98/58 117/97/60 118/97/61 116/98/59 
f 117/97/60 119/96/62 120/96/63 118/97/61 
f 119/96/62 121/95/64 122/95/65 120/96/63 
f 121/95/64 123/94/66 124/94/67 122/95/65 
f 123/94/66 125/93/68 126/93/69 124/94/67 
f 125/93/68 127/92/70 128/92/71 126/93/69 
f 127/92/70 129/91/72 130/91/73 128/92/71 
f 129/91/72 131/89/74 132/89/75 130/91/73 
f 131/89/74 133/90/76 134/90/77 132/89/75 
f 133/88/76 135/87/78 136/87/79 134/88/77 
f 135/87/78 137/86/80 138/86/81 136/87/79 
f 137/86/80 139/85/82 140/85/83 138/86/81 
f 139/85/82 101/83/44 104/83/47 140/85/83 
s 4
f 4/4/84 3/3/85 141/3/86 142/4/87 
f 3/3/85 6/6/88 143/6/89 141/3/86 
f 6/6/88 8/8/90 144/8/91 143/6/89 
f 8/8/90 10/10/92 145/10/93 144/8/91 
f 10/10/92 12/12/94 146/12/95 145/10/93 
f 12/16/94 14/15/96 147/15/97 146/16/95 
f 14/15/96 16/18/98 148/18/99 147/15/97 
f 16/18/98 18/20/100 149/20/101 148/18/99 
f 18/20/100 20/22/102 150/22/103 149/20/101 
f 20/22/102 22/24/104 151/24/105 150/22/103 
f 22/24/104 24/26/106 152/26/107 151/24/105 
f 24/26/106 26/28/108 153/28/109 152/26/107 
f 26/28/108 28/30/110 154/30/111 153/28/109 
f 28/30/110 30/32/112 155/32/113 154/30/111 
f 30/32/112 32/34/114 156/34/115 155/32/113 
f 32/34/114 34/36/116 157/36/117 156/34/115 
f 34/36/116 36/38/118 158/38/119 157/36/117 
f 36/38/118 38/40/120 159/40/121 158/38/119 
f 38/40/120 40/42/122 160/42/123 159/40/121 
f 40/42/122 4/4/84 142/4/87 160/42/123 
s 1
f 104/83/47 103/84/46 63/84/124 62/83/125 
f 103/84/46 106/103/49 100/103/126 63/84/124 
f 106/103/49 108/102/51 98/102/127 100/103/126 
f 108/102/51 110/101/53 96/101/128 98/102/127 
f 110/101/53 112/100/55 94/100/129 96/101/128 
f 112/100/55 114/99/57 92/99/130 94/100/129 
f 114/99/57 116/98/59 90/98/131 92/99/130 
f 116/98/59 118/97/61 88/97/132 90/98/131 
f 118/97/61 120/96/63 86/96/133 88/97/132 
f 120/96/63 122/95/65 84/95/134 86/96/133 
f 122/95/65 124/94/67 82/94/135 84/95/134 
f 124/94/67 126/93/69 80/93/136 82/94/135 
f 126/93/69 128/92/71 78/92/137 80/93/136 
f 128/92/71 130/91/73 76/91/138 78/92/137 
f 130/91/73 132/89/75 74/89/139 76/91/138 
f 132/89/75 134/90/77 72/90/140 74/89/139 
f 134/88/77 136/87/79 70/87/141 72/88/140 
f 136/87/79 138/86/81 68/86/142 70/87/141 
f 138/86/81 140/85/83 66/85/143 68/86/142 
f 140/85/83 104/83/47 62/83/125 66/85/143 
s 4
f 161/4/144 162/3/145 61/3/146 64/4/147 
f 162/3/145 163/6/148 65/6/149 61/3/146 
f 163/6/148 164/8/150 67/8/151 65/6/149 
f 164/8/150 165/10/152 69/10/153 67/8/151 
f 165/10/152 166/12/154 71/12/155 69/10/153 
f 166/16/154 167/15/156 73/15/157 71/16/155 
f 167/15/156 168/18/158 75/18/159 73/15/157 
f 168/18/158 169/20/160 77/20/161 75/18/159 
f 169/20/160 170/22/162 79/22/163 77/20/161 
f 170/22/162 171/24/164 81/24/165 79/22/163 
f 171/24/164 172/26/166 83/26/167 81/24/165 
f 172/26/166 173/28/168 85/28/169 83/26/167 
f 173/28/168 174/30/170 87/30/171 85/28/169 
f 174/30/170 175/32/172 89/32/173 87/30/171 
f 175/32/172 176/34/174 91/34/175 89/32/173 
f 176/34/174 177/36/176 93/36/177 91/34/175 
f 177/36/176 178/38/178 95/38/179 93/36/177 
f 178/38/178 179/40/180 97/40/181 95/38/179 
f 179/40/180 180/42/182 99/42/183 97/40/181 
f 180/42/182 161/4/144 64/4/147 99/42/183 
s 1
f 102/63/45 101/64/44 42/64/184 41/63/185 
f 101/64/44 139/65/82 43/65/186 42/64/184 
f 139/65/82 137/66/80 44/66/187 43/65/186 
f 137/66/80 135/67/78 45/67/188 44/66/187 
f 135/67/78 133/68/76 46/68/189 45/67/188 
f 133/68/76 131/69/74 47/69/190 46/68/189 
f 131/69/74 129/70/72 48/70/191 47/69/190 
f 129/70/72 127/71/70 49/71/192 48/70/191 
f 127/71/70 125/72/68 50/72/193 49/71/192 
f 125/72/68 123/73/66 51/73/194 50/72/193 
f 123/73/66 121/74/64 52/74/195 51/73/194 
f 121/74/64 119/75/62 53/75/196 52/74/195 
f 119/75/62 117/76/60 54/76/197 53/75/196 
f 117/76/60 115/77/58 55/77/198 54/76/197 
f 115/77/58 113/78/56 56/78/199 55/77/198 
f 113/78/56 111/79/54 57/79/200 56/78/199 
f 111/79/54 109/80/52 58/80/201 57/79/200 
f 109/80/52 107/81/50 59/81/202 58/80/201 
f 107/81/50 105/82/48 60/82/203 59/81/202 
f 105/82/48 102/63/45 41/63/185 60/82/203 
s 4
f 161/4/144 142/4/87 141/3/86 162/3/145 
f 162/3/145 141/3/86 143/6/89 163/6/148 
f 163/6/148 143/6/89 144/8/91 164/8/150 
f 164/8/150 144/8/91 145/10/93 165/10/152 
f 165/10/152 145/10/93 146/12/95 166/12/154 
f 166/16/154 146/16/95 147/15/97 167/15/156 
f 167/15/156 147/15/97 148/18/99 168/18/158 
f 168/18/158 148/18/99 149/20/101 169/20/160 
f 169/20/160 149/20/101 150/22/103 170/22/162 
f 170/22/162 150/22/103 151/24/105 171/24/164 
f 171/24/164 151/24/105 152/26/107 172/26/166 
f 172/26/166 152/26/107 153/28/109 173/28/168 
f 173/28/168 153/28/109 154/30/111 174/30/170 
f 174/30/170 154/30/111 155/32/113 175/32/172 
f 175/32/172 155/32/113 156/34/115 176/34/174 
f 176/34/174 156/34/115 157/36/117 177/36/176 
f 177/36/176 157/36/117 158/38/119 178/38/178 
f 178/38/178 158/38/119 159/40/121 179/40/180 
f 179/40/180 159/40/121 160/42/123 180/42/182 
f 180/42/182 160/42/123 142/4/87 161/4/144 
# 162 polygons

