# 3ds Max Wavefront OBJ Exporter v0.97b - (c)2007 guruware
# File Created: 28.03.2018 14:44:56

mtllib ENV_Wall_1.mtl

#
# object ENV_WallPiece_1
#

v  -103.5429 196.4680 23.5847
v  103.5429 196.4680 23.5847
v  103.5429 321.2809 23.5847
v  -103.5429 321.2809 23.5847
v  -103.5429 19.3981 0.0091
v  103.5429 19.3981 0.0091
v  103.5429 196.4680 0.0091
v  -103.5429 196.4680 0.0091
v  103.5429 321.2809 0.0091
v  -103.5429 321.2809 0.0091
v  103.5429 19.3981 5.1029
v  -103.5429 19.3981 5.1029
v  -103.5429 0.0000 5.1029
v  103.5429 0.0000 5.1029
v  -103.5429 0.0000 0.0091
v  103.5429 0.0000 0.0091
# 16 vertices

vn 0.0000 0.0000 1.0000
vn 0.0000 1.0000 -0.0000
vn -1.0000 0.0000 -0.0000
vn 0.0000 -1.0000 -0.0000
vn 1.0000 0.0000 -0.0000
# 5 vertex normals

vt 0.1040 0.5978 0.0000
vt 0.6118 0.5978 0.0000
vt 0.6118 0.9038 0.0000
vt 0.1040 0.9038 0.0000
vt 0.1040 0.1058 0.0000
vt 0.6118 0.1058 0.0000
vt 0.6118 0.5400 0.0000
vt 0.1040 0.5400 0.0000
vt 0.6118 0.9616 0.0000
vt 0.1040 0.9616 0.0000
vt 0.0462 0.9038 0.0000
vt 0.0462 0.5978 0.0000
vt 0.6696 0.5978 0.0000
vt 0.6696 0.9038 0.0000
vt 0.6118 0.0933 0.0000
vt 0.1040 0.0933 0.0000
vt 0.1040 0.0457 0.0000
vt 0.6118 0.0457 0.0000
vt 0.1040 0.0333 0.0000
vt 0.6118 0.0333 0.0000
# 20 texture coords

g ENV_WallPiece_1
usemtl MapMaterial
s 8
f 1/1/1 2/2/1 3/3/1 4/4/1 
f 5/5/1 6/6/1 7/7/1 8/8/1 
s off
f 3/3/2 9/9/2 10/10/2 4/4/2 
f 4/4/3 10/11/3 8/12/3 1/1/3 
f 1/1/4 8/8/4 7/7/4 2/2/4 
f 2/2/5 7/13/5 9/14/5 3/3/5 
s 8
f 11/15/1 12/16/1 13/17/1 14/18/1 
s off
f 13/17/4 15/19/4 16/20/4 14/18/4 
f 11/15/2 6/6/2 5/5/2 12/16/2 
# 9 polygons

