# 3ds Max Wavefront OBJ Exporter v0.97b - (c)2007 guruware
# File Created: 28.03.2018 14:43:33

mtllib ENV_DoorPiece_2.mtl

#
# object ENV_DoorPiece_1
#

v  59.7091 196.4680 23.5847
v  103.5429 196.4680 23.5847
v  103.5429 321.2809 23.5847
v  59.7091 321.2809 23.5847
v  103.5429 321.2809 0.0091
v  59.7091 321.2809 0.0091
v  -103.5429 321.2809 23.5847
v  -103.5429 321.2809 0.0091
v  -103.5429 196.4680 0.0091
v  -103.5429 196.4680 23.5847
v  -61.8358 196.4680 0.0091
v  -61.8358 196.4680 23.5847
v  103.5429 196.4680 0.0091
v  -46.4520 19.3978 5.1520
v  -103.5429 19.3978 5.1519
v  -103.5429 -0.0003 5.1510
v  -44.3594 -0.0003 5.1510
v  59.7091 178.9948 0.0083
v  103.5429 178.9948 0.0083
v  59.7091 196.4680 0.0091
v  -61.8358 321.2809 23.5847
v  -61.8358 321.2809 0.0091
v  -103.5429 178.9948 0.0083
v  -61.8358 162.0058 0.0083
v  50.0703 19.3978 5.1519
v  48.8988 -0.0002 5.1510
v  103.5429 -0.0002 5.1510
v  103.5429 19.3978 5.1519
v  50.0703 19.3980 0.0009
v  59.7091 178.9953 -9.6180
v  48.8988 0.0000 -0.0000
v  48.8987 0.0005 -9.6263
v  -61.8359 162.0063 -9.6180
v  -46.4520 19.3980 0.0010
v  -44.3594 0.0000 -0.0000
v  -44.3595 0.0005 -9.6263
v  -103.5429 19.3980 0.0009
v  103.5429 19.3980 0.0009
v  -103.5429 0.0000 -0.0000
v  103.5429 0.0000 -0.0000
# 40 vertices

vn 0.0000 0.0000 1.0000
vn 0.0000 1.0000 -0.0000
vn -1.0000 0.0000 -0.0000
vn 0.0000 -1.0000 -0.0000
vn 1.0000 0.0000 -0.0000
vn 0.0000 -0.0001 1.0000
vn -0.9982 0.0603 -0.0000
vn 0.1384 -0.9904 -0.0000
vn 0.9942 0.1073 -0.0000
# 9 vertex normals

vt 0.6255 0.5042 0.0000
vt 0.7176 0.5042 0.0000
vt 0.7176 0.7665 0.0000
vt 0.6255 0.7665 0.0000
vt 0.7176 0.8161 0.0000
vt 0.6255 0.8161 0.0000
vt 0.2824 0.7665 0.0000
vt 0.2824 0.8161 0.0000
vt 0.0200 0.8161 0.0000
vt 0.0200 0.7665 0.0000
vt 0.2824 0.5042 0.0000
vt 0.2824 0.4546 0.0000
vt 0.3700 0.4546 0.0000
vt 0.3700 0.5042 0.0000
vt 0.9800 0.7665 0.0000
vt 0.9800 0.8161 0.0000
vt 0.4023 0.0716 0.0000
vt 0.2823 0.0716 0.0000
vt 0.2823 0.0308 0.0000
vt 0.4067 0.0308 0.0000
vt 0.6255 0.4179 0.0000
vt 0.7176 0.4179 0.0000
vt 0.7176 0.4546 0.0000
vt 0.6255 0.4546 0.0000
vt 0.3700 0.7665 0.0000
vt 0.3700 0.8161 0.0000
vt 0.2824 0.4179 0.0000
vt 0.3700 0.3822 0.0000
vt 0.6053 0.0716 0.0000
vt 0.6028 0.0308 0.0000
vt 0.7176 0.0308 0.0000
vt 0.7176 0.0716 0.0000
vt 0.5774 0.0575 0.0000
vt 0.5774 0.3701 0.0000
vt 0.5586 0.3701 0.0000
vt 0.5774 0.0195 0.0000
vt 0.5586 0.0195 0.0000
vt 0.6205 0.3960 0.0000
vt 0.3756 0.3626 0.0000
vt 0.4597 0.0614 0.0000
vt 0.4597 0.0232 0.0000
vt 0.4785 0.0232 0.0000
vt 0.4785 0.3418 0.0000
vt 0.4597 0.3418 0.0000
vt 0.2823 0.0824 0.0000
vt 0.4023 0.0824 0.0000
vt 0.6053 0.0824 0.0000
vt 0.7176 0.0824 0.0000
vt 0.2823 0.0200 0.0000
vt 0.4067 0.0200 0.0000
vt 0.4497 0.0232 0.0000
vt 0.4497 0.0614 0.0000
vt 0.2416 0.0308 0.0000
vt 0.2416 0.0200 0.0000
vt 0.7176 0.0200 0.0000
vt 0.7584 0.0200 0.0000
vt 0.7584 0.0308 0.0000
vt 0.5875 0.0575 0.0000
vt 0.5875 0.0195 0.0000
vt 0.6028 0.0200 0.0000
# 60 texture coords

g ENV_DoorPiece_1
usemtl MapMaterial
s 8
f 1/1/1 2/2/1 3/3/1 4/4/1 
s off
f 3/3/2 5/5/2 6/6/2 4/4/2 
f 7/7/3 8/8/3 9/9/3 10/10/3 
f 10/11/4 9/12/4 11/13/4 12/14/4 
f 2/15/5 13/16/5 5/5/5 3/3/5 
s 8
f 14/17/6 15/18/1 16/19/1 17/20/6 
f 18/21/1 19/22/1 13/23/1 20/24/1 
f 12/14/1 21/25/1 7/7/1 10/11/1 
s off
f 21/25/2 22/26/2 8/8/2 7/7/2 
f 12/14/4 11/13/4 20/24/4 1/1/4 
s 8
f 23/27/1 24/28/1 11/13/1 9/12/1 
f 1/1/1 4/4/1 21/25/1 12/14/1 
s off
f 4/4/2 6/6/2 22/26/2 21/25/2 
s 8
f 18/21/1 20/24/1 11/13/1 24/28/1 
s off
f 1/1/4 20/24/4 13/23/4 2/2/4 
s 8
f 25/29/1 26/30/1 27/31/1 28/32/1 
s off
f 29/33/7 18/34/7 30/35/7 31/36/7 
f 30/35/7 32/37/7 31/36/7 
f 30/38/8 18/21/8 24/28/8 33/39/8 
f 34/40/9 35/41/9 36/42/9 33/43/9 
f 34/40/9 33/43/9 24/44/9 
s 8
f 37/45/6 34/46/6 24/28/1 23/27/1 
f 18/21/1 29/47/1 38/48/1 19/22/1 
s off
f 16/19/4 39/49/4 35/50/4 17/20/4 
f 17/51/9 35/41/9 34/40/9 14/52/9 
f 14/17/2 34/46/2 37/45/2 15/18/2 
f 15/53/3 37/54/3 39/49/3 16/19/3 
f 27/31/5 40/55/5 38/56/5 28/57/5 
f 28/32/2 38/48/2 29/47/2 25/29/2 
f 25/58/7 29/33/7 31/36/7 26/59/7 
f 26/30/4 31/60/4 40/55/4 27/31/4 
# 29 polygons - 2 triangles

