# This file uses centimeters as units for non-parametric coordinates.

mtllib plate.mtl
g default
v 4.080093 0.058633 -17.141601
v 4.184631 0.058633 -16.953879
v 4.342062 0.058633 -16.807648
v 4.536976 0.058633 -16.717224
v 4.750292 0.058633 -16.691456
v 4.961131 0.058633 -16.732869
v 5.148853 0.058633 -16.837407
v 5.295084 0.058633 -16.994838
v 5.385508 0.058633 -17.189751
v 5.411276 0.058633 -17.403068
v 5.369863 0.058633 -17.613907
v 5.265325 0.058633 -17.801629
v 5.107894 0.058633 -17.947859
v 4.912981 0.058633 -18.038284
v 4.699664 0.058633 -18.064051
v 4.488826 0.058633 -18.022639
v 4.301103 0.058633 -17.918101
v 4.154873 0.058633 -17.760670
v 4.064448 0.058633 -17.565756
v 4.038681 0.058633 -17.352440
v 4.004010 0.132770 -17.113740
v 4.120882 0.132770 -16.903870
v 4.296886 0.132770 -16.740388
v 4.514795 0.132770 -16.639295
v 4.753279 0.132770 -16.610488
v 4.988992 0.132770 -16.656786
v 5.198861 0.132770 -16.773657
v 5.362344 0.132770 -16.949662
v 5.463437 0.132770 -17.167571
v 5.492244 0.132770 -17.406054
v 5.445946 0.132770 -17.641767
v 5.329075 0.132770 -17.851637
v 5.153070 0.132770 -18.015120
v 4.935161 0.132770 -18.116212
v 4.696678 0.132770 -18.145019
v 4.460965 0.132770 -18.098721
v 4.251095 0.132770 -17.981850
v 4.087613 0.132770 -17.805846
v 3.986520 0.132770 -17.587936
v 3.957713 0.132770 -17.349453
v 3.760513 0.192476 -17.024573
v 3.916856 0.192476 -16.743823
v 4.152304 0.192476 -16.525126
v 4.443809 0.192476 -16.389890
v 4.762837 0.192476 -16.351354
v 5.078159 0.192476 -16.413288
v 5.358909 0.192476 -16.569632
v 5.577606 0.192476 -16.805079
v 5.712841 0.192476 -17.096585
v 5.751378 0.192476 -17.415613
v 5.689443 0.192476 -17.730935
v 5.533100 0.192476 -18.011685
v 5.297652 0.192476 -18.230381
v 5.006147 0.192476 -18.365617
v 4.687119 0.192476 -18.404153
v 4.371798 0.192476 -18.342219
v 4.091047 0.192476 -18.185876
v 3.872351 0.192476 -17.950428
v 3.737115 0.192476 -17.658923
v 3.698579 0.192476 -17.339895
v 3.760513 0.294313 -17.024573
v 3.916856 0.294313 -16.743823
v 4.152304 0.294313 -16.525126
v 4.443809 0.294313 -16.389890
v 4.762837 0.294313 -16.351354
v 5.078159 0.294313 -16.413288
v 5.358909 0.294313 -16.569632
v 5.577606 0.294313 -16.805079
v 5.712841 0.294313 -17.096585
v 5.751378 0.294313 -17.415613
v 5.689443 0.294313 -17.730935
v 5.533100 0.294313 -18.011685
v 5.297652 0.294313 -18.230381
v 5.006147 0.294313 -18.365617
v 4.687119 0.294313 -18.404153
v 4.371798 0.294313 -18.342219
v 4.091047 0.294313 -18.185876
v 3.872351 0.294313 -17.950428
v 3.737115 0.294313 -17.658923
v 3.698579 0.294313 -17.339895
v 4.004010 0.194343 -17.113740
v 4.120882 0.194343 -16.903870
v 4.296886 0.194343 -16.740388
v 4.514795 0.194343 -16.639295
v 4.753279 0.194343 -16.610488
v 4.988992 0.194343 -16.656786
v 5.198861 0.194343 -16.773657
v 5.362344 0.194343 -16.949662
v 5.463437 0.194343 -17.167571
v 5.492244 0.194343 -17.406054
v 5.445946 0.194343 -17.641767
v 5.329075 0.194343 -17.851637
v 5.153070 0.194343 -18.015120
v 4.935161 0.194343 -18.116212
v 4.696678 0.194343 -18.145019
v 4.460965 0.194343 -18.098721
v 4.251095 0.194343 -17.981850
v 4.087613 0.194343 -17.805846
v 3.986520 0.194343 -17.587936
v 3.957713 0.194343 -17.349453
v 4.080093 0.114072 -17.141601
v 4.184631 0.114072 -16.953879
v 4.342062 0.114072 -16.807648
v 4.536976 0.114072 -16.717224
v 4.750292 0.114072 -16.691456
v 4.961131 0.114072 -16.732869
v 5.148853 0.114072 -16.837407
v 5.295084 0.114072 -16.994838
v 5.385508 0.114072 -17.189751
v 5.411276 0.114072 -17.403068
v 5.369863 0.114072 -17.613907
v 5.265325 0.114072 -17.801629
v 5.107894 0.114072 -17.947859
v 4.912981 0.114072 -18.038284
v 4.699664 0.114072 -18.064051
v 4.488826 0.114072 -18.022639
v 4.301103 0.114072 -17.918101
v 4.154873 0.114072 -17.760670
v 4.064448 0.114072 -17.565756
v 4.038681 0.114072 -17.352440
v 4.724978 0.084852 -17.377754
v 4.724978 0.114071 -17.377754
vt 0.549534 0.140155
vt 0.542136 0.125636
vt 0.530614 0.114114
vt 0.516095 0.106716
vt 0.500000 0.104167
vt 0.483905 0.106716
vt 0.469386 0.114114
vt 0.457864 0.125636
vt 0.450466 0.140155
vt 0.447917 0.156250
vt 0.450466 0.172345
vt 0.457864 0.186864
vt 0.469386 0.198386
vt 0.483905 0.205784
vt 0.500000 0.208333
vt 0.516095 0.205784
vt 0.530614 0.198386
vt 0.542136 0.186864
vt 0.549534 0.172345
vt 0.552083 0.156250
vt 0.599068 0.124061
vt 0.584273 0.095022
vt 0.561228 0.071977
vt 0.532189 0.057182
vt 0.500000 0.052083
vt 0.467811 0.057182
vt 0.438772 0.071977
vt 0.415727 0.095022
vt 0.400932 0.124061
vt 0.395833 0.156250
vt 0.400932 0.188439
vt 0.415727 0.217478
vt 0.438772 0.240523
vt 0.467811 0.255318
vt 0.500000 0.260417
vt 0.532189 0.255318
vt 0.561228 0.240523
vt 0.584273 0.217478
vt 0.599068 0.188439
vt 0.604167 0.156250
vt 0.648603 0.107966
vt 0.626409 0.064408
vt 0.591842 0.029841
vt 0.548284 0.007647
vt 0.500000 -0.000000
vt 0.451716 0.007647
vt 0.408159 0.029841
vt 0.373591 0.064409
vt 0.351397 0.107966
vt 0.343750 0.156250
vt 0.351397 0.204534
vt 0.373591 0.248091
vt 0.408159 0.282659
vt 0.451716 0.304853
vt 0.500000 0.312500
vt 0.548284 0.304853
vt 0.591841 0.282659
vt 0.626409 0.248091
vt 0.648603 0.204534
vt 0.656250 0.156250
vt 0.375000 0.312500
vt 0.387500 0.312500
vt 0.400000 0.312500
vt 0.412500 0.312500
vt 0.425000 0.312500
vt 0.437500 0.312500
vt 0.450000 0.312500
vt 0.462500 0.312500
vt 0.475000 0.312500
vt 0.487500 0.312500
vt 0.500000 0.312500
vt 0.512500 0.312500
vt 0.525000 0.312500
vt 0.537500 0.312500
vt 0.550000 0.312500
vt 0.562500 0.312500
vt 0.575000 0.312500
vt 0.587500 0.312500
vt 0.600000 0.312500
vt 0.612500 0.312500
vt 0.625000 0.312500
vt 0.375000 0.688440
vt 0.387500 0.688440
vt 0.400000 0.688440
vt 0.412500 0.688440
vt 0.425000 0.688440
vt 0.437500 0.688440
vt 0.450000 0.688440
vt 0.462500 0.688440
vt 0.475000 0.688440
vt 0.487500 0.688440
vt 0.500000 0.688440
vt 0.512500 0.688440
vt 0.525000 0.688440
vt 0.537500 0.688440
vt 0.550000 0.688440
vt 0.562500 0.688440
vt 0.575000 0.688440
vt 0.587500 0.688440
vt 0.600000 0.688440
vt 0.612500 0.688440
vt 0.625000 0.688440
vt 0.648603 0.795466
vt 0.626409 0.751908
vt 0.591842 0.717341
vt 0.548284 0.695147
vt 0.500000 0.687500
vt 0.451716 0.695147
vt 0.408159 0.717341
vt 0.373591 0.751909
vt 0.351397 0.795466
vt 0.343750 0.843750
vt 0.351397 0.892034
vt 0.373591 0.935591
vt 0.408159 0.970159
vt 0.451716 0.992353
vt 0.500000 1.000000
vt 0.548284 0.992353
vt 0.591841 0.970159
vt 0.626409 0.935591
vt 0.648603 0.892034
vt 0.656250 0.843750
vt 0.599068 0.811561
vt 0.584273 0.782522
vt 0.561228 0.759477
vt 0.532189 0.744682
vt 0.500000 0.739583
vt 0.467811 0.744682
vt 0.438772 0.759477
vt 0.415727 0.782522
vt 0.400932 0.811561
vt 0.395833 0.843750
vt 0.400932 0.875939
vt 0.415727 0.904978
vt 0.438772 0.928023
vt 0.467811 0.942818
vt 0.500000 0.947917
vt 0.532189 0.942818
vt 0.561228 0.928023
vt 0.584273 0.904978
vt 0.599068 0.875939
vt 0.604167 0.843750
vt 0.549534 0.827655
vt 0.542136 0.813136
vt 0.530614 0.801614
vt 0.516095 0.794216
vt 0.500000 0.791667
vt 0.483905 0.794216
vt 0.469386 0.801614
vt 0.457864 0.813136
vt 0.450466 0.827655
vt 0.447917 0.843750
vt 0.450466 0.859845
vt 0.457864 0.874364
vt 0.469386 0.885886
vt 0.483905 0.893284
vt 0.500000 0.895833
vt 0.516095 0.893284
vt 0.530614 0.885886
vt 0.542136 0.874364
vt 0.549534 0.859845
vt 0.552083 0.843750
vt 0.500000 0.150000
vt 0.500000 0.837500
vn -0.153882 -0.986481 0.056350
vn -0.128937 -0.986481 0.101145
vn -0.270257 -0.939157 0.212003
vn -0.322542 -0.939157 0.118113
vn -0.091371 -0.986481 0.136038
vn -0.191517 -0.939157 0.285141
vn -0.044861 -0.986481 0.157615
vn -0.094030 -0.939157 0.330367
vn 0.006040 -0.986481 0.163764
vn 0.012661 -0.939157 0.343255
vn 0.056351 -0.986481 0.153882
vn 0.118113 -0.939157 0.322542
vn 0.101145 -0.986481 0.128937
vn 0.212003 -0.939157 0.270257
vn 0.136038 -0.986481 0.091371
vn 0.285141 -0.939157 0.191517
vn 0.157615 -0.986481 0.044861
vn 0.330367 -0.939157 0.094030
vn 0.163764 -0.986481 -0.006040
vn 0.343255 -0.939157 -0.012661
vn 0.153882 -0.986481 -0.056351
vn 0.322542 -0.939157 -0.118113
vn 0.128937 -0.986481 -0.101145
vn 0.270257 -0.939157 -0.212003
vn 0.091371 -0.986481 -0.136038
vn 0.191517 -0.939157 -0.285141
vn 0.044861 -0.986481 -0.157615
vn 0.094030 -0.939157 -0.330367
vn -0.006040 -0.986481 -0.163764
vn -0.012661 -0.939157 -0.343255
vn -0.056351 -0.986481 -0.153882
vn -0.118113 -0.939157 -0.322543
vn -0.101145 -0.986481 -0.128937
vn -0.212003 -0.939157 -0.270257
vn -0.136038 -0.986481 -0.091371
vn -0.285141 -0.939157 -0.191517
vn -0.157615 -0.986481 -0.044861
vn -0.330367 -0.939157 -0.094030
vn -0.163764 -0.986481 0.006040
vn -0.343255 -0.939157 0.012661
vn -0.176542 -0.974502 0.138488
vn -0.210697 -0.974502 0.077156
vn -0.125106 -0.974502 0.186265
vn -0.061424 -0.974502 0.215808
vn 0.008271 -0.974502 0.224227
vn 0.077156 -0.974502 0.210697
vn 0.138488 -0.974502 0.176542
vn 0.186265 -0.974502 0.125106
vn 0.215808 -0.974502 0.061424
vn 0.224227 -0.974502 -0.008271
vn 0.210697 -0.974502 -0.077156
vn 0.176542 -0.974502 -0.138488
vn 0.125106 -0.974502 -0.186265
vn 0.061424 -0.974502 -0.215808
vn -0.008271 -0.974502 -0.224227
vn -0.077156 -0.974502 -0.210697
vn -0.138488 -0.974502 -0.176542
vn -0.186265 -0.974502 -0.125106
vn -0.215808 -0.974502 -0.061424
vn -0.224227 -0.974502 0.008270
vn -0.939020 0.000000 0.343862
vn -0.786801 0.000000 0.617206
vn -0.786801 0.000000 0.617206
vn -0.939020 0.000000 0.343862
vn -0.557565 0.000000 0.830133
vn -0.557565 0.000000 0.830133
vn -0.273751 0.000000 0.961801
vn -0.273751 0.000000 0.961801
vn 0.036860 0.000000 0.999320
vn 0.036860 0.000000 0.999320
vn 0.343863 0.000000 0.939020
vn 0.343863 0.000000 0.939020
vn 0.617206 0.000000 0.786801
vn 0.617206 0.000000 0.786801
vn 0.830133 0.000000 0.557565
vn 0.830133 0.000000 0.557565
vn 0.961801 0.000000 0.273751
vn 0.961801 0.000000 0.273751
vn 0.999320 0.000000 -0.036860
vn 0.999320 0.000000 -0.036860
vn 0.939020 0.000000 -0.343863
vn 0.939020 0.000000 -0.343863
vn 0.786801 0.000000 -0.617206
vn 0.786801 0.000000 -0.617206
vn 0.557565 0.000000 -0.830133
vn 0.557565 0.000000 -0.830133
vn 0.273751 0.000000 -0.961801
vn 0.273751 0.000000 -0.961801
vn -0.036860 0.000000 -0.999320
vn -0.036860 0.000000 -0.999320
vn -0.343863 0.000000 -0.939020
vn -0.343863 0.000000 -0.939020
vn -0.617206 0.000000 -0.786802
vn -0.617206 0.000000 -0.786802
vn -0.830133 0.000000 -0.557566
vn -0.830133 0.000000 -0.557566
vn -0.961801 0.000000 -0.273751
vn -0.961801 0.000000 -0.273751
vn -0.999321 0.000000 0.036859
vn -0.999321 0.000000 0.036859
vn 0.337779 0.933062 -0.123692
vn 0.283024 0.933062 -0.222018
vn 0.355286 0.892242 -0.278704
vn 0.424021 0.892242 -0.155273
vn 0.200565 0.933062 -0.298611
vn 0.251772 0.892242 -0.374852
vn 0.098472 0.933062 -0.345974
vn 0.123614 0.892242 -0.434308
vn -0.013259 0.933062 -0.359470
vn -0.016644 0.892242 -0.451250
vn -0.123693 0.933062 -0.337779
vn -0.155274 0.892242 -0.424021
vn -0.222018 0.933062 -0.283024
vn -0.278704 0.892242 -0.355286
vn -0.298611 0.933062 -0.200565
vn -0.374852 0.892242 -0.251772
vn -0.345974 0.933062 -0.098472
vn -0.434308 0.892242 -0.123614
vn -0.359471 0.933062 0.013259
vn -0.451250 0.892242 0.016644
vn -0.337780 0.933062 0.123693
vn -0.424021 0.892242 0.155274
vn -0.283024 0.933062 0.222018
vn -0.355286 0.892242 0.278704
vn -0.200565 0.933062 0.298611
vn -0.251773 0.892242 0.374852
vn -0.098472 0.933062 0.345974
vn -0.123614 0.892242 0.434308
vn 0.013259 0.933062 0.359470
vn 0.016644 0.892242 0.451250
vn 0.123693 0.933062 0.337779
vn 0.155274 0.892242 0.424021
vn 0.222018 0.933062 0.283024
vn 0.278704 0.892242 0.355286
vn 0.298611 0.933062 0.200565
vn 0.374852 0.892242 0.251773
vn 0.345974 0.933062 0.098472
vn 0.434308 0.892242 0.123614
vn 0.359470 0.933062 -0.013259
vn 0.451250 0.892242 -0.016644
vn 0.166213 0.977432 -0.130385
vn 0.198369 0.977432 -0.072641
vn 0.117786 0.977432 -0.175367
vn 0.057830 0.977432 -0.203181
vn -0.007787 0.977432 -0.211108
vn -0.072641 0.977432 -0.198369
vn -0.130386 0.977432 -0.166213
vn -0.175367 0.977432 -0.117786
vn -0.203181 0.977432 -0.057830
vn -0.211108 0.977432 0.007787
vn -0.198369 0.977432 0.072641
vn -0.166213 0.977432 0.130385
vn -0.117786 0.977432 0.175367
vn -0.057830 0.977432 0.203181
vn 0.007787 0.977432 0.211108
vn 0.072641 0.977432 0.198369
vn 0.130386 0.977432 0.166213
vn 0.175367 0.977432 0.117786
vn 0.203181 0.977432 0.057830
vn 0.211108 0.977432 -0.007787
vn 0.000000 -1.000000 -0.000000
vn 0.000000 1.000000 0.000000
s 1
g pCylinder12 group5
usemtl initialShadingGroup
f 1/1/1 2/2/2 22/22/3 21/21/4
f 2/2/2 3/3/5 23/23/6 22/22/3
f 3/3/5 4/4/7 24/24/8 23/23/6
f 4/4/7 5/5/9 25/25/10 24/24/8
f 5/5/9 6/6/11 26/26/12 25/25/10
f 6/6/11 7/7/13 27/27/14 26/26/12
f 7/7/13 8/8/15 28/28/16 27/27/14
f 8/8/15 9/9/17 29/29/18 28/28/16
f 9/9/17 10/10/19 30/30/20 29/29/18
f 10/10/19 11/11/21 31/31/22 30/30/20
f 11/11/21 12/12/23 32/32/24 31/31/22
f 12/12/23 13/13/25 33/33/26 32/32/24
f 13/13/25 14/14/27 34/34/28 33/33/26
f 14/14/27 15/15/29 35/35/30 34/34/28
f 15/15/29 16/16/31 36/36/32 35/35/30
f 16/16/31 17/17/33 37/37/34 36/36/32
f 17/17/33 18/18/35 38/38/36 37/37/34
f 18/18/35 19/19/37 39/39/38 38/38/36
f 19/19/37 20/20/39 40/40/40 39/39/38
f 20/20/39 1/1/1 21/21/4 40/40/40
f 21/21/4 22/22/3 42/42/41 41/41/42
f 22/22/3 23/23/6 43/43/43 42/42/41
f 23/23/6 24/24/8 44/44/44 43/43/43
f 24/24/8 25/25/10 45/45/45 44/44/44
f 25/25/10 26/26/12 46/46/46 45/45/45
f 26/26/12 27/27/14 47/47/47 46/46/46
f 27/27/14 28/28/16 48/48/48 47/47/47
f 28/28/16 29/29/18 49/49/49 48/48/48
f 29/29/18 30/30/20 50/50/50 49/49/49
f 30/30/20 31/31/22 51/51/51 50/50/50
f 31/31/22 32/32/24 52/52/52 51/51/51
f 32/32/24 33/33/26 53/53/53 52/52/52
f 33/33/26 34/34/28 54/54/54 53/53/53
f 34/34/28 35/35/30 55/55/55 54/54/54
f 35/35/30 36/36/32 56/56/56 55/55/55
f 36/36/32 37/37/34 57/57/57 56/56/56
f 37/37/34 38/38/36 58/58/58 57/57/57
f 38/38/36 39/39/38 59/59/59 58/58/58
f 39/39/38 40/40/40 60/60/60 59/59/59
f 40/40/40 21/21/4 41/41/42 60/60/60
s 2
f 41/61/61 42/62/62 62/83/63 61/82/64
f 42/62/62 43/63/65 63/84/66 62/83/63
f 43/63/65 44/64/67 64/85/68 63/84/66
f 44/64/67 45/65/69 65/86/70 64/85/68
f 45/65/69 46/66/71 66/87/72 65/86/70
f 46/66/71 47/67/73 67/88/74 66/87/72
f 47/67/73 48/68/75 68/89/76 67/88/74
f 48/68/75 49/69/77 69/90/78 68/89/76
f 49/69/77 50/70/79 70/91/80 69/90/78
f 50/70/79 51/71/81 71/92/82 70/91/80
f 51/71/81 52/72/83 72/93/84 71/92/82
f 52/72/83 53/73/85 73/94/86 72/93/84
f 53/73/85 54/74/87 74/95/88 73/94/86
f 54/74/87 55/75/89 75/96/90 74/95/88
f 55/75/89 56/76/91 76/97/92 75/96/90
f 56/76/91 57/77/93 77/98/94 76/97/92
f 57/77/93 58/78/95 78/99/96 77/98/94
f 58/78/95 59/79/97 79/100/98 78/99/96
f 59/79/97 60/80/99 80/101/100 79/100/98
f 60/80/99 41/81/61 61/102/64 80/101/100
s 3
f 61/121/101 62/120/102 82/140/103 81/141/104
f 62/120/102 63/119/105 83/139/106 82/140/103
f 63/119/105 64/118/107 84/138/108 83/139/106
f 64/118/107 65/117/109 85/137/110 84/138/108
f 65/117/109 66/116/111 86/136/112 85/137/110
f 66/116/111 67/115/113 87/135/114 86/136/112
f 67/115/113 68/114/115 88/134/116 87/135/114
f 68/114/115 69/113/117 89/133/118 88/134/116
f 69/113/117 70/112/119 90/132/120 89/133/118
f 70/112/119 71/111/121 91/131/122 90/132/120
f 71/111/121 72/110/123 92/130/124 91/131/122
f 72/110/123 73/109/125 93/129/126 92/130/124
f 73/109/125 74/108/127 94/128/128 93/129/126
f 74/108/127 75/107/129 95/127/130 94/128/128
f 75/107/129 76/106/131 96/126/132 95/127/130
f 76/106/131 77/105/133 97/125/134 96/126/132
f 77/105/133 78/104/135 98/124/136 97/125/134
f 78/104/135 79/103/137 99/123/138 98/124/136
f 79/103/137 80/122/139 100/142/140 99/123/138
f 80/122/139 61/121/101 81/141/104 100/142/140
f 81/141/104 82/140/103 102/160/141 101/161/142
f 82/140/103 83/139/106 103/159/143 102/160/141
f 83/139/106 84/138/108 104/158/144 103/159/143
f 84/138/108 85/137/110 105/157/145 104/158/144
f 85/137/110 86/136/112 106/156/146 105/157/145
f 86/136/112 87/135/114 107/155/147 106/156/146
f 87/135/114 88/134/116 108/154/148 107/155/147
f 88/134/116 89/133/118 109/153/149 108/154/148
f 89/133/118 90/132/120 110/152/150 109/153/149
f 90/132/120 91/131/122 111/151/151 110/152/150
f 91/131/122 92/130/124 112/150/152 111/151/151
f 92/130/124 93/129/126 113/149/153 112/150/152
f 93/129/126 94/128/128 114/148/154 113/149/153
f 94/128/128 95/127/130 115/147/155 114/148/154
f 95/127/130 96/126/132 116/146/156 115/147/155
f 96/126/132 97/125/134 117/145/157 116/146/156
f 97/125/134 98/124/136 118/144/158 117/145/157
f 98/124/136 99/123/138 119/143/159 118/144/158
f 99/123/138 100/142/140 120/162/160 119/143/159
f 100/142/140 81/141/104 101/161/142 120/162/160
s 1
f 2/2/2 1/1/1 121/163/161
f 3/3/5 2/2/2 121/163/161
f 4/4/7 3/3/5 121/163/161
f 5/5/9 4/4/7 121/163/161
f 6/6/11 5/5/9 121/163/161
f 7/7/13 6/6/11 121/163/161
f 8/8/15 7/7/13 121/163/161
f 9/9/17 8/8/15 121/163/161
f 10/10/19 9/9/17 121/163/161
f 11/11/21 10/10/19 121/163/161
f 12/12/23 11/11/21 121/163/161
f 13/13/25 12/12/23 121/163/161
f 14/14/27 13/13/25 121/163/161
f 15/15/29 14/14/27 121/163/161
f 16/16/31 15/15/29 121/163/161
f 17/17/33 16/16/31 121/163/161
f 18/18/35 17/17/33 121/163/161
f 19/19/37 18/18/35 121/163/161
f 20/20/39 19/19/37 121/163/161
f 1/1/1 20/20/39 121/163/161
s 3
f 101/161/142 102/160/141 122/164/162
f 102/160/141 103/159/143 122/164/162
f 103/159/143 104/158/144 122/164/162
f 104/158/144 105/157/145 122/164/162
f 105/157/145 106/156/146 122/164/162
f 106/156/146 107/155/147 122/164/162
f 107/155/147 108/154/148 122/164/162
f 108/154/148 109/153/149 122/164/162
f 109/153/149 110/152/150 122/164/162
f 110/152/150 111/151/151 122/164/162
f 111/151/151 112/150/152 122/164/162
f 112/150/152 113/149/153 122/164/162
f 113/149/153 114/148/154 122/164/162
f 114/148/154 115/147/155 122/164/162
f 115/147/155 116/146/156 122/164/162
f 116/146/156 117/145/157 122/164/162
f 117/145/157 118/144/158 122/164/162
f 118/144/158 119/143/159 122/164/162
f 119/143/159 120/162/160 122/164/162
f 120/162/160 101/161/142 122/164/162
