# 3ds Max Wavefront OBJ Exporter v0.97b - (c)2007 guruware
# File Created: 16.02.2018 10:16:04

mtllib Engine.mtl

#
# object Object001
#

v  5.0271 8.5992 12.5626
v  4.7127 6.8163 12.5626
v  7.2237 5.9024 8.0595
v  7.6992 8.5992 8.0595
v  3.8075 5.2484 12.5626
v  5.8545 3.5308 8.0595
v  2.4206 4.0847 12.5626
v  3.7567 1.7706 8.0595
v  0.7194 3.4655 12.5626
v  1.1834 0.8340 8.0595
v  -1.0911 3.4655 12.5626
v  -1.5551 0.8340 8.0595
v  -2.7923 4.0847 12.5626
v  -4.1284 1.7706 8.0595
v  -4.1792 5.2484 12.5626
v  -6.2262 3.5308 8.0595
v  -5.0844 6.8163 12.5626
v  -7.5954 5.9024 8.0595
v  -5.3988 8.5992 12.5626
v  -8.0709 8.5992 8.0595
v  -5.0844 10.3822 12.5626
v  -7.5954 11.2961 8.0595
v  -4.1792 11.9501 12.5626
v  -6.2262 13.6677 8.0595
v  -2.7923 13.1138 12.5626
v  -4.1284 15.4279 8.0595
v  -1.0911 13.7330 12.5626
v  -1.5551 16.3645 8.0595
v  0.7194 13.7330 12.5626
v  1.1834 16.3645 8.0595
v  2.4206 13.1138 12.5626
v  3.7567 15.4279 8.0595
v  3.8075 11.9501 12.5626
v  5.8545 13.6677 8.0595
v  4.7127 10.3822 12.5626
v  7.2237 11.2961 8.0595
v  8.7404 8.5992 2.6835
v  8.2020 5.5463 2.6835
v  7.9343 5.6437 -3.5653
v  8.4554 8.5992 -3.5653
v  6.6520 2.8616 2.6835
v  6.4338 3.0447 -3.5653
v  4.2773 0.8689 2.6835
v  4.1348 1.1157 -3.5653
v  1.3642 -0.1914 2.6835
v  1.3147 0.0892 -3.5653
v  -1.7359 -0.1914 2.6835
v  -1.6864 0.0892 -3.5653
v  -4.6490 0.8689 2.6835
v  -4.5065 1.1157 -3.5653
v  -7.0237 2.8616 2.6835
v  -6.8055 3.0447 -3.5653
v  -8.5738 5.5463 2.6835
v  -8.3060 5.6437 -3.5653
v  -9.1121 8.5992 2.6835
v  -8.8272 8.5992 -3.5653
v  -8.5738 11.6522 2.6835
v  -8.3060 11.5547 -3.5653
v  -7.0237 14.3369 2.6835
v  -6.8055 14.1538 -3.5653
v  -4.6490 16.3296 2.6835
v  -4.5065 16.0828 -3.5653
v  -1.7359 17.3899 2.6835
v  -1.6864 17.1093 -3.5653
v  1.3642 17.3899 2.6835
v  1.3147 17.1093 -3.5653
v  4.2772 16.3296 2.6835
v  4.1348 16.0828 -3.5653
v  6.6520 14.3369 2.6835
v  6.4338 14.1538 -3.5653
v  8.2020 11.6522 2.6835
v  7.9343 11.5547 -3.5653
v  2.3409 9.5189 12.1850
v  1.8740 10.3277 12.1850
v  1.1586 10.9280 12.1850
v  0.2811 11.2474 12.1850
v  -0.6528 11.2474 12.1850
v  -1.5303 10.9280 12.1850
v  -2.2457 10.3277 12.1850
v  -2.7127 9.5189 12.1850
v  -2.8748 8.5992 12.1850
v  -2.7127 7.6796 12.1850
v  -2.2457 6.8708 12.1850
v  -1.5303 6.2705 12.1850
v  -0.6528 5.9511 12.1850
v  0.2811 5.9511 12.1850
v  1.1586 6.2705 12.1850
v  1.8740 6.8708 12.1850
v  2.3409 7.6796 12.1850
v  2.5031 8.5992 12.1850
v  3.2948 8.5992 -5.5230
v  3.0849 7.4088 -5.5230
v  2.4805 6.3619 -5.5230
v  1.5545 5.5849 -5.5230
v  0.4185 5.1715 -5.5230
v  -0.7903 5.1715 -5.5230
v  -1.9262 5.5849 -5.5230
v  -2.8522 6.3619 -5.5230
v  -3.4566 7.4088 -5.5230
v  -3.6665 8.5992 -5.5230
v  -3.4566 9.7897 -5.5230
v  -2.8522 10.8365 -5.5230
v  -1.9262 11.6135 -5.5230
v  -0.7903 12.0270 -5.5230
v  0.4185 12.0270 -5.5230
v  1.5545 11.6135 -5.5230
v  2.4804 10.8365 -5.5230
v  3.0849 9.7897 -5.5230
v  6.7070 6.0904 -10.6870
v  7.1494 8.5992 -10.6870
v  5.4332 3.8843 -10.6870
v  3.4818 2.2468 -10.6870
v  1.0879 1.3755 -10.6870
v  -1.4596 1.3755 -10.6870
v  -3.8535 2.2468 -10.6870
v  -5.8050 3.8843 -10.6870
v  -7.0787 6.0904 -10.6871
v  -7.5211 8.5992 -10.6870
v  -7.0787 11.1080 -10.6871
v  -5.8050 13.3142 -10.6870
v  -3.8535 14.9517 -10.6870
v  -1.4596 15.8230 -10.6870
v  1.0879 15.8230 -10.6870
v  3.4817 14.9517 -10.6870
v  5.4332 13.3142 -10.6870
v  6.7070 11.1080 -10.6870
v  4.5732 6.8671 -19.5969
v  4.8787 8.5992 -19.5969
v  3.6938 5.3438 -19.5969
v  2.3464 4.2132 -19.5969
v  0.6936 3.6117 -19.5969
v  -1.0653 3.6117 -19.5969
v  -2.7181 4.2132 -19.5969
v  -4.0655 5.3438 -19.5969
v  -4.9450 6.8671 -19.5969
v  -5.2504 8.5992 -19.5969
v  -4.9450 10.3314 -19.5969
v  -4.0655 11.8547 -19.5969
v  -2.7181 12.9852 -19.5969
v  -1.0653 13.5868 -19.5969
v  0.6936 13.5868 -19.5969
v  2.3464 12.9852 -19.5969
v  3.6938 11.8547 -19.5969
v  4.5732 10.3314 -19.5969
v  4.2158 8.5992 12.5626
v  3.9503 7.0938 12.5626
v  3.9503 10.1047 12.5626
v  3.1860 11.4286 12.5626
v  2.0150 12.4112 12.5626
v  0.5785 12.9340 12.5626
v  -0.9502 12.9340 12.5626
v  -2.3867 12.4112 12.5626
v  -3.5577 11.4286 12.5626
v  -4.3220 10.1047 12.5626
v  -4.5875 8.5992 12.5626
v  -4.3220 7.0938 12.5626
v  -3.5577 5.7699 12.5626
v  -2.3867 4.7873 12.5626
v  -0.9502 4.2645 12.5626
v  0.5785 4.2645 12.5626
v  2.0150 4.7873 12.5626
v  3.1860 5.7699 12.5626
v  2.5031 8.5992 10.4083
v  2.3409 7.6796 10.4083
v  2.3409 9.5189 10.4083
v  1.8740 10.3277 10.4083
v  1.1586 10.9280 10.4083
v  0.2811 11.2474 10.4083
v  -0.6528 11.2474 10.4083
v  -1.5303 10.9280 10.4083
v  -2.2457 10.3277 10.4083
v  -2.7127 9.5189 10.4083
v  -2.8748 8.5992 10.4083
v  -2.7127 7.6796 10.4083
v  -2.2457 6.8708 10.4083
v  -1.5303 6.2705 10.4083
v  -0.6528 5.9511 10.4083
v  0.2811 5.9511 10.4083
v  1.1586 6.2705 10.4083
v  1.8740 6.8708 10.4083
v  3.0849 7.4088 -19.5969
v  3.2948 8.5992 -19.5969
v  2.4805 6.3619 -19.5969
v  1.5545 5.5849 -19.5969
v  0.4185 5.1715 -19.5969
v  -0.7903 5.1715 -19.5969
v  -1.9262 5.5849 -19.5969
v  -2.8522 6.3619 -19.5969
v  -3.4566 7.4088 -19.5969
v  -3.6665 8.5992 -19.5969
v  -3.4566 9.7897 -19.5969
v  -2.8522 10.8365 -19.5969
v  -1.9262 11.6135 -19.5969
v  -0.7903 12.0270 -19.5969
v  0.4185 12.0270 -19.5969
v  1.5545 11.6135 -19.5969
v  2.4805 10.8365 -19.5969
v  3.0849 9.7897 -19.5969
# 198 vertices

vn 0.8600 0.0000 0.5103
vn 0.8081 -0.2941 0.5103
vn 0.8805 -0.3205 0.3493
vn 0.9370 0.0000 0.3493
vn 0.6588 -0.5528 0.5103
vn 0.7178 -0.6023 0.3493
vn 0.4300 -0.7448 0.5103
vn 0.4685 -0.8115 0.3493
vn 0.1493 -0.8469 0.5103
vn 0.1627 -0.9228 0.3493
vn -0.1493 -0.8469 0.5103
vn -0.1627 -0.9228 0.3493
vn -0.4300 -0.7448 0.5103
vn -0.4685 -0.8115 0.3493
vn -0.6588 -0.5528 0.5103
vn -0.7178 -0.6023 0.3493
vn -0.8081 -0.2941 0.5103
vn -0.8805 -0.3205 0.3493
vn -0.8600 0.0000 0.5103
vn -0.9370 -0.0000 0.3493
vn -0.8081 0.2941 0.5103
vn -0.8805 0.3205 0.3493
vn -0.6588 0.5528 0.5103
vn -0.7178 0.6023 0.3493
vn -0.4300 0.7448 0.5103
vn -0.4685 0.8115 0.3493
vn -0.1493 0.8469 0.5103
vn -0.1627 0.9228 0.3493
vn 0.1493 0.8469 0.5103
vn 0.1627 0.9228 0.3493
vn 0.4300 0.7448 0.5103
vn 0.4685 0.8115 0.3493
vn 0.6588 0.5528 0.5103
vn 0.7178 0.6023 0.3493
vn 0.8081 0.2941 0.5103
vn 0.8805 0.3205 0.3493
vn 0.9990 0.0000 -0.0455
vn 0.9387 -0.3417 -0.0455
vn 0.9337 -0.3399 -0.1124
vn 0.9937 0.0000 -0.1124
vn 0.7652 -0.6421 -0.0455
vn 0.7612 -0.6387 -0.1124
vn 0.4995 -0.8651 -0.0455
vn 0.4968 -0.8605 -0.1124
vn 0.1735 -0.9838 -0.0455
vn 0.1725 -0.9786 -0.1124
vn -0.1735 -0.9838 -0.0455
vn -0.1725 -0.9786 -0.1124
vn -0.4995 -0.8651 -0.0455
vn -0.4968 -0.8605 -0.1124
vn -0.7652 -0.6421 -0.0455
vn -0.7612 -0.6387 -0.1124
vn -0.9387 -0.3417 -0.0455
vn -0.9337 -0.3399 -0.1124
vn -0.9990 -0.0000 -0.0455
vn -0.9937 -0.0000 -0.1124
vn -0.9387 0.3417 -0.0455
vn -0.9337 0.3399 -0.1124
vn -0.7652 0.6421 -0.0455
vn -0.7612 0.6387 -0.1124
vn -0.4995 0.8651 -0.0455
vn -0.4968 0.8605 -0.1124
vn -0.1735 0.9838 -0.0455
vn -0.1725 0.9786 -0.1124
vn 0.1735 0.9838 -0.0455
vn 0.1725 0.9786 -0.1124
vn 0.4995 0.8651 -0.0455
vn 0.4968 0.8605 -0.1124
vn 0.7652 0.6421 -0.0455
vn 0.7612 0.6387 -0.1124
vn 0.9387 0.3417 -0.0455
vn 0.9337 0.3399 -0.1124
vn 0.0000 0.0000 1.0000
vn -0.0000 0.0000 1.0000
vn 0.0000 -0.0000 1.0000
vn -0.0000 -0.0000 1.0000
vn -0.0000 0.0000 -1.0000
vn -0.0000 -0.0000 -1.0000
vn 0.0000 -0.0000 -1.0000
vn 0.0000 0.0000 -1.0000
vn 0.9226 -0.3358 0.1901
vn 0.9818 0.0000 0.1901
vn 0.7521 -0.6311 0.1901
vn 0.4909 -0.8502 0.1901
vn 0.1705 -0.9668 0.1901
vn -0.1705 -0.9668 0.1901
vn -0.4909 -0.8502 0.1901
vn -0.7521 -0.6311 0.1901
vn -0.9226 -0.3358 0.1901
vn -0.9818 0.0000 0.1901
vn -0.9226 0.3358 0.1901
vn -0.7521 0.6311 0.1901
vn -0.4909 0.8502 0.1901
vn -0.1705 0.9668 0.1901
vn 0.1705 0.9668 0.1901
vn 0.4909 0.8502 0.1901
vn 0.7521 0.6311 0.1901
vn 0.9226 0.3358 0.1901
vn 0.9181 -0.3342 -0.2130
vn 0.9770 0.0000 -0.2130
vn 0.7485 -0.6280 -0.2130
vn 0.4885 -0.8461 -0.2130
vn 0.1697 -0.9622 -0.2130
vn -0.1697 -0.9622 -0.2130
vn -0.4885 -0.8461 -0.2130
vn -0.7485 -0.6280 -0.2130
vn -0.9181 -0.3342 -0.2130
vn -0.9770 -0.0000 -0.2130
vn -0.9181 0.3342 -0.2130
vn -0.7485 0.6280 -0.2130
vn -0.4885 0.8461 -0.2130
vn -0.1697 0.9622 -0.2130
vn 0.1697 0.9622 -0.2130
vn 0.4885 0.8461 -0.2130
vn 0.7485 0.6280 -0.2130
vn 0.9181 0.3342 -0.2130
vn 0.9106 -0.3314 -0.2470
vn 0.9690 0.0000 -0.2470
vn 0.7423 -0.6229 -0.2470
vn 0.4845 -0.8392 -0.2470
vn 0.1683 -0.9543 -0.2470
vn -0.1683 -0.9543 -0.2470
vn -0.4845 -0.8392 -0.2470
vn -0.7423 -0.6229 -0.2470
vn -0.9106 -0.3314 -0.2470
vn -0.9690 -0.0000 -0.2470
vn -0.9106 0.3314 -0.2470
vn -0.7423 0.6229 -0.2470
vn -0.4845 0.8392 -0.2470
vn -0.1683 0.9543 -0.2470
vn 0.1683 0.9543 -0.2470
vn 0.4845 0.8392 -0.2470
vn 0.7423 0.6229 -0.2470
vn 0.9106 0.3314 -0.2470
vn -0.7356 0.2677 0.6223
vn -0.7828 -0.0000 0.6223
vn -0.7356 -0.2677 0.6223
vn -0.5996 -0.5032 0.6223
vn -0.3914 -0.6779 0.6223
vn -0.1359 -0.7709 0.6223
vn 0.1359 -0.7709 0.6223
vn 0.3914 -0.6779 0.6223
vn 0.5996 -0.5032 0.6223
vn 0.7356 -0.2677 0.6223
vn 0.7828 0.0000 0.6223
vn 0.7356 0.2677 0.6223
vn 0.5996 0.5032 0.6223
vn 0.3914 0.6779 0.6223
vn 0.1359 0.7709 0.6223
vn -0.1359 0.7709 0.6223
vn -0.3914 0.6779 0.6223
vn -0.5996 0.5032 0.6223
vn 0.9397 -0.3420 0.0000
vn 1.0000 0.0000 0.0000
vn 1.0000 0.0000 -0.0000
vn 0.9397 0.3420 -0.0000
vn 0.7660 0.6428 -0.0000
vn 0.5000 0.8660 -0.0000
vn 0.1736 0.9848 -0.0000
vn -0.1736 0.9848 -0.0000
vn -0.5000 0.8660 -0.0000
vn -0.7660 0.6428 -0.0000
vn -0.9397 0.3420 -0.0000
vn -1.0000 -0.0000 -0.0000
vn -1.0000 -0.0000 0.0000
vn -0.9397 -0.3420 0.0000
vn -0.7660 -0.6428 0.0000
vn -0.5000 -0.8660 0.0000
vn -0.1736 -0.9848 0.0000
vn 0.1736 -0.9848 0.0000
vn 0.5000 -0.8660 0.0000
vn 0.7660 -0.6428 0.0000
vn -0.9848 0.1736 -0.0000
vn -0.8660 0.5000 -0.0000
vn -0.6428 0.7660 -0.0000
vn -0.3420 0.9397 -0.0000
vn -0.0000 1.0000 -0.0000
vn 0.3420 0.9397 0.0000
vn 0.6428 0.7660 0.0000
vn 0.8660 0.5000 0.0000
vn 0.9848 0.1736 0.0000
vn 0.9848 -0.1736 0.0000
vn 0.8660 -0.5000 0.0000
vn 0.6428 -0.7660 0.0000
vn 0.3420 -0.9397 0.0000
vn 0.0000 -1.0000 0.0000
vn -0.3420 -0.9397 -0.0000
vn -0.6428 -0.7660 -0.0000
vn -0.8660 -0.5000 -0.0000
vn -0.9848 -0.1736 -0.0000
# 190 vertex normals

vt 0.7500 0.0000 1.0000
vt 0.8056 0.0000 1.0000
vt 0.8056 0.2500 1.0000
vt 0.7500 0.2500 1.0000
vt 0.8611 0.0000 1.0000
vt 0.8611 0.2500 1.0000
vt 0.9167 0.0000 1.0000
vt 0.9167 0.2500 1.0000
vt 0.9722 0.0000 1.0000
vt 0.9722 0.2500 1.0000
vt 1.0278 0.0000 1.0000
vt 1.0278 0.2500 1.0000
vt 0.0278 0.0000 1.0000
vt 0.0833 0.0000 1.0000
vt 0.0833 0.2500 1.0000
vt 0.0278 0.2500 1.0000
vt 0.1389 0.0000 1.0000
vt 0.1389 0.2500 1.0000
vt 0.1944 0.0000 1.0000
vt 0.1944 0.2500 1.0000
vt 0.2500 0.0000 1.0000
vt 0.2500 0.2500 1.0000
vt 0.3056 0.0000 1.0000
vt 0.3056 0.2500 1.0000
vt 0.3611 0.0000 1.0000
vt 0.3611 0.2500 1.0000
vt 0.4167 0.0000 1.0000
vt 0.4167 0.2500 1.0000
vt 0.4722 0.0000 1.0000
vt 0.4722 0.2500 1.0000
vt 0.5278 0.0000 1.0000
vt 0.5278 0.2500 1.0000
vt 0.5833 0.0000 1.0000
vt 0.5833 0.2500 1.0000
vt 0.6389 0.0000 1.0000
vt 0.6389 0.2500 1.0000
vt 0.6944 0.0000 1.0000
vt 0.6944 0.2500 1.0000
vt 0.7500 0.5000 1.0000
vt 0.8056 0.5000 1.0000
vt 0.8056 0.7500 1.0000
vt 0.7500 0.7500 1.0000
vt 0.8611 0.5000 1.0000
vt 0.8611 0.7500 1.0000
vt 0.9167 0.5000 1.0000
vt 0.9167 0.7500 1.0000
vt 0.9722 0.5000 1.0000
vt 0.9722 0.7500 1.0000
vt 1.0278 0.5000 1.0000
vt 1.0278 0.7500 1.0000
vt 0.0278 0.5000 1.0000
vt 0.0833 0.5000 1.0000
vt 0.0833 0.7500 1.0000
vt 0.0278 0.7500 1.0000
vt 0.1389 0.5000 1.0000
vt 0.1389 0.7500 1.0000
vt 0.1944 0.5000 1.0000
vt 0.1944 0.7500 1.0000
vt 0.2500 0.5000 1.0000
vt 0.2500 0.7500 1.0000
vt 0.3056 0.5000 1.0000
vt 0.3056 0.7500 1.0000
vt 0.3611 0.5000 1.0000
vt 0.3611 0.7500 1.0000
vt 0.4167 0.5000 1.0000
vt 0.4167 0.7500 1.0000
vt 0.4722 0.5000 1.0000
vt 0.4722 0.7500 1.0000
vt 0.5278 0.5000 1.0000
vt 0.5278 0.7500 1.0000
vt 0.5833 0.5000 1.0000
vt 0.5833 0.7500 1.0000
vt 0.6389 0.5000 1.0000
vt 0.6389 0.7500 1.0000
vt 0.6944 0.5000 1.0000
vt 0.6944 0.7500 1.0000
vt 0.6710 0.9698 -0.2500
vt 0.8214 0.8830 -0.2500
vt 0.9330 0.7500 -0.2500
vt 0.9924 0.5868 -0.2500
vt 0.9924 0.4132 -0.2500
vt 0.9330 0.2500 -0.2500
vt 0.8214 0.1170 -0.2500
vt 0.6710 0.0302 -0.2500
vt 0.5000 0.0000 -0.2500
vt 0.3290 0.0302 -0.2500
vt 0.1786 0.1170 -0.2500
vt 0.0670 0.2500 -0.2500
vt 0.0076 0.4132 -0.2500
vt 0.0076 0.5868 -0.2500
vt 0.0670 0.7500 -0.2500
vt 0.1786 0.8830 -0.2500
vt 0.3290 0.9698 -0.2500
vt 0.5000 1.0000 -0.2500
vt 0.5000 1.0000 0.2500
vt 0.3290 0.9698 0.2500
vt 0.1786 0.8830 0.2500
vt 0.0670 0.7500 0.2500
vt 0.0076 0.5868 0.2500
vt 0.0076 0.4132 0.2500
vt 0.0670 0.2500 0.2500
vt 0.1786 0.1170 0.2500
vt 0.3290 0.0302 0.2500
vt 0.5000 0.0000 0.2500
vt 0.6710 0.0302 0.2500
vt 0.8214 0.1170 0.2500
vt 0.9330 0.2500 0.2500
vt 0.9924 0.4132 0.2500
vt 0.9924 0.5868 0.2500
vt 0.9330 0.7500 0.2500
vt 0.8214 0.8830 0.2500
vt 0.6710 0.9698 0.2500
vt 0.8056 1.0000 1.0000
vt 0.7500 1.0000 1.0000
vt 0.8611 1.0000 1.0000
vt 0.9167 1.0000 1.0000
vt 0.9722 1.0000 1.0000
vt 1.0278 1.0000 1.0000
vt 0.0833 1.0000 1.0000
vt 0.0278 1.0000 1.0000
vt 0.1389 1.0000 1.0000
vt 0.1944 1.0000 1.0000
vt 0.2500 1.0000 1.0000
vt 0.3056 1.0000 1.0000
vt 0.3611 1.0000 1.0000
vt 0.4167 1.0000 1.0000
vt 0.4722 1.0000 1.0000
vt 0.5278 1.0000 1.0000
vt 0.5833 1.0000 1.0000
vt 0.6389 1.0000 1.0000
vt 0.6944 1.0000 1.0000
# 131 texture coords

g Object001
usemtl 01___Default
s 8
f 1/1/1 2/2/2 3/3/3 4/4/4 
f 2/2/2 5/5/5 6/6/6 3/3/3 
f 5/5/5 7/7/7 8/8/8 6/6/6 
f 7/7/7 9/9/9 10/10/10 8/8/8 
f 9/9/9 11/11/11 12/12/12 10/10/10 
f 11/13/11 13/14/13 14/15/14 12/16/12 
f 13/14/13 15/17/15 16/18/16 14/15/14 
f 15/17/15 17/19/17 18/20/18 16/18/16 
f 17/19/17 19/21/19 20/22/20 18/20/18 
f 19/21/19 21/23/21 22/24/22 20/22/20 
f 21/23/21 23/25/23 24/26/24 22/24/22 
f 23/25/23 25/27/25 26/28/26 24/26/24 
f 25/27/25 27/29/27 28/30/28 26/28/26 
f 27/29/27 29/31/29 30/32/30 28/30/28 
f 29/31/29 31/33/31 32/34/32 30/32/30 
f 31/33/31 33/35/33 34/36/34 32/34/32 
f 33/35/33 35/37/35 36/38/36 34/36/34 
f 35/37/35 1/1/1 4/4/4 36/38/36 
s 128
f 37/39/37 38/40/38 39/41/39 40/42/40 
f 38/40/38 41/43/41 42/44/42 39/41/39 
f 41/43/41 43/45/43 44/46/44 42/44/42 
f 43/45/43 45/47/45 46/48/46 44/46/44 
f 45/47/45 47/49/47 48/50/48 46/48/46 
f 47/51/47 49/52/49 50/53/50 48/54/48 
f 49/52/49 51/55/51 52/56/52 50/53/50 
f 51/55/51 53/57/53 54/58/54 52/56/52 
f 53/57/53 55/59/55 56/60/56 54/58/54 
f 55/59/55 57/61/57 58/62/58 56/60/56 
f 57/61/57 59/63/59 60/64/60 58/62/58 
f 59/63/59 61/65/61 62/66/62 60/64/60 
f 61/65/61 63/67/63 64/68/64 62/66/62 
f 63/67/63 65/69/65 66/70/66 64/68/64 
f 65/69/65 67/71/67 68/72/68 66/70/66 
f 67/71/67 69/73/69 70/74/70 68/72/68 
f 69/73/69 71/75/71 72/76/72 70/74/70 
f 71/75/71 37/39/37 40/42/40 72/76/72 
s 1
f 73/77/73 74/78/74 75/79/73 76/80/74 77/81/73 78/82/73 79/83/75 80/84/73 81/85/73 82/86/74 83/87/76 84/88/74 85/89/73 86/90/73 87/91/74 88/92/74 89/93/73 90/94/74 
f 91/95/77 92/96/77 93/97/77 94/98/78 95/99/79 96/100/80 97/101/78 98/102/78 99/103/79 100/104/80 101/105/79 102/106/80 103/107/79 104/108/77 105/109/77 106/110/80 107/111/80 108/112/79 
s 8
f 3/3/3 38/40/81 37/39/82 4/4/4 
f 6/6/6 41/43/83 38/40/81 3/3/3 
f 8/8/8 43/45/84 41/43/83 6/6/6 
f 10/10/10 45/47/85 43/45/84 8/8/8 
f 12/12/12 47/49/86 45/47/85 10/10/10 
f 14/15/14 49/52/87 47/51/86 12/16/12 
f 16/18/16 51/55/88 49/52/87 14/15/14 
f 18/20/18 53/57/89 51/55/88 16/18/16 
f 20/22/20 55/59/90 53/57/89 18/20/18 
f 22/24/22 57/61/91 55/59/90 20/22/20 
f 24/26/24 59/63/92 57/61/91 22/24/22 
f 26/28/26 61/65/93 59/63/92 24/26/24 
f 28/30/28 63/67/94 61/65/93 26/28/26 
f 30/32/30 65/69/95 63/67/94 28/30/28 
f 32/34/32 67/71/96 65/69/95 30/32/30 
f 34/36/34 69/73/97 67/71/96 32/34/32 
f 36/38/36 71/75/98 69/73/97 34/36/34 
f 4/4/4 37/39/82 71/75/98 36/38/36 
s 128
f 39/41/39 109/113/99 110/114/100 40/42/40 
f 42/44/42 111/115/101 109/113/99 39/41/39 
f 44/46/44 112/116/102 111/115/101 42/44/42 
f 46/48/46 113/117/103 112/116/102 44/46/44 
f 48/50/48 114/118/104 113/117/103 46/48/46 
f 50/53/50 115/119/105 114/120/104 48/54/48 
f 52/56/52 116/121/106 115/119/105 50/53/50 
f 54/58/54 117/122/107 116/121/106 52/56/52 
f 56/60/56 118/123/108 117/122/107 54/58/54 
f 58/62/58 119/124/109 118/123/108 56/60/56 
f 60/64/60 120/125/110 119/124/109 58/62/58 
f 62/66/62 121/126/111 120/125/110 60/64/60 
f 64/68/64 122/127/112 121/126/111 62/66/62 
f 66/70/66 123/128/113 122/127/112 64/68/64 
f 68/72/68 124/129/114 123/128/113 66/70/66 
f 70/74/70 125/130/115 124/129/114 68/72/68 
f 72/76/72 126/131/116 125/130/115 70/74/70 
f 40/42/40 110/114/100 126/131/116 72/76/72 
f 110/95/100 109/96/99 127/96/117 128/95/118 
f 109/96/99 111/97/101 129/97/119 127/96/117 
f 111/97/101 112/98/102 130/98/120 129/97/119 
f 112/98/102 113/99/103 131/99/121 130/98/120 
f 113/99/103 114/100/104 132/100/122 131/99/121 
f 114/100/104 115/101/105 133/101/123 132/100/122 
f 115/101/105 116/102/106 134/102/124 133/101/123 
f 116/102/106 117/103/107 135/103/125 134/102/124 
f 117/103/107 118/104/108 136/104/126 135/103/125 
f 118/104/108 119/105/109 137/105/127 136/104/126 
f 119/105/109 120/106/110 138/106/128 137/105/127 
f 120/106/110 121/107/111 139/107/129 138/106/128 
f 121/107/111 122/108/112 140/108/130 139/107/129 
f 122/108/112 123/109/113 141/109/131 140/108/130 
f 123/109/113 124/110/114 142/110/132 141/109/131 
f 124/110/114 125/111/115 143/111/133 142/110/132 
f 125/111/115 126/112/116 144/112/134 143/111/133 
f 126/112/116 110/95/100 128/95/118 144/112/134 
s off
f 2/93/73 1/94/73 145/94/73 146/93/73 
f 1/94/73 35/77/73 147/77/73 145/94/73 
f 35/77/73 33/78/73 148/78/73 147/77/73 
f 33/78/74 31/79/74 149/79/74 148/78/74 
f 31/79/73 29/80/73 150/80/73 149/79/73 
f 29/80/73 27/81/73 151/81/73 150/80/73 
f 27/81/74 25/82/74 152/82/74 151/81/74 
f 25/82/73 23/83/73 153/83/73 152/82/73 
f 23/83/74 21/84/74 154/84/74 153/83/74 
f 21/84/73 19/85/73 155/85/73 154/84/73 
f 19/85/73 17/86/73 156/86/73 155/85/73 
f 17/86/73 15/87/73 157/87/73 156/86/73 
f 15/87/74 13/88/74 158/88/74 157/87/74 
f 13/88/73 11/89/73 159/89/73 158/88/73 
f 11/89/74 9/90/74 160/90/74 159/89/74 
f 9/90/73 7/91/73 161/91/73 160/90/73 
f 7/91/74 5/92/74 162/92/74 161/91/74 
f 5/92/74 2/93/74 146/93/74 162/92/74 
s 2147483648
f 146/93/135 145/94/136 163/94/136 164/93/135 
f 145/94/136 147/77/137 165/77/137 163/94/136 
f 147/77/137 148/78/138 166/78/138 165/77/137 
f 148/78/138 149/79/139 167/79/139 166/78/138 
f 149/79/139 150/80/140 168/80/140 167/79/139 
f 150/80/140 151/81/141 169/81/141 168/80/140 
f 151/81/141 152/82/142 170/82/142 169/81/141 
f 152/82/142 153/83/143 171/83/143 170/82/142 
f 153/83/143 154/84/144 172/84/144 171/83/143 
f 154/84/144 155/85/145 173/85/145 172/84/144 
f 155/85/145 156/86/146 174/86/146 173/85/145 
f 156/86/146 157/87/147 175/87/147 174/86/146 
f 157/87/147 158/88/148 176/88/148 175/87/147 
f 158/88/148 159/89/149 177/89/149 176/88/148 
f 159/89/149 160/90/150 178/90/150 177/89/149 
f 160/90/150 161/91/151 179/91/151 178/90/150 
f 161/91/151 162/92/152 180/92/152 179/91/151 
f 162/92/152 146/93/135 164/93/135 180/92/152 
s 1073741824
f 164/93/153 163/94/154 90/94/155 89/93/153 
f 163/94/154 165/77/156 73/77/156 90/94/155 
f 165/77/156 166/78/157 74/78/157 73/77/156 
f 166/78/157 167/79/158 75/79/158 74/78/157 
f 167/79/158 168/80/159 76/80/159 75/79/158 
f 168/80/159 169/81/160 77/81/160 76/80/159 
f 169/81/160 170/82/161 78/82/161 77/81/160 
f 170/82/161 171/83/162 79/83/162 78/82/161 
f 171/83/162 172/84/163 80/84/163 79/83/162 
f 172/84/163 173/85/164 81/85/165 80/84/163 
f 173/85/164 174/86/166 82/86/166 81/85/165 
f 174/86/166 175/87/167 83/87/167 82/86/166 
f 175/87/167 176/88/168 84/88/168 83/87/167 
f 176/88/168 177/89/169 85/89/169 84/88/168 
f 177/89/169 178/90/170 86/90/170 85/89/169 
f 178/90/170 179/91/171 87/91/171 86/90/170 
f 179/91/171 180/92/172 88/92/172 87/91/171 
f 180/92/172 164/93/153 89/93/153 88/92/172 
s off
f 128/95/79 127/96/79 181/96/79 182/95/79 
f 127/96/79 129/97/79 183/97/79 181/96/79 
f 129/97/78 130/98/78 184/98/78 183/97/78 
f 130/98/79 131/99/79 185/99/79 184/98/79 
f 131/99/79 132/100/79 186/100/79 185/99/79 
f 132/100/77 133/101/77 187/101/77 186/100/77 
f 133/101/79 134/102/79 188/102/79 187/101/79 
f 134/102/79 135/103/79 189/103/79 188/102/79 
f 135/103/79 136/104/79 190/104/79 189/103/79 
f 136/104/79 137/105/79 191/105/79 190/104/79 
f 137/105/80 138/106/80 192/106/80 191/105/80 
f 138/106/79 139/107/79 193/107/79 192/106/79 
f 139/107/79 140/108/79 194/108/79 193/107/79 
f 140/108/79 141/109/79 195/109/79 194/108/79 
f 141/109/77 142/110/77 196/110/77 195/109/77 
f 142/110/79 143/111/79 197/111/79 196/110/79 
f 143/111/79 144/112/79 198/112/79 197/111/79 
f 144/112/77 128/95/77 182/95/77 198/112/77 
f 182/95/173 181/96/173 92/96/173 91/95/173 
f 181/96/174 183/97/174 93/97/174 92/96/174 
f 183/97/175 184/98/175 94/98/175 93/97/175 
f 184/98/176 185/99/176 95/99/176 94/98/176 
f 185/99/177 186/100/177 96/100/177 95/99/177 
f 186/100/178 187/101/178 97/101/178 96/100/178 
f 187/101/179 188/102/179 98/102/179 97/101/179 
f 188/102/180 189/103/180 99/103/180 98/102/180 
f 189/103/181 190/104/181 100/104/181 99/103/181 
f 190/104/182 191/105/182 101/105/182 100/104/182 
f 191/105/183 192/106/183 102/106/183 101/105/183 
f 192/106/184 193/107/184 103/107/184 102/106/184 
f 193/107/185 194/108/185 104/108/185 103/107/185 
f 194/108/186 195/109/186 105/109/186 104/108/186 
f 195/109/187 196/110/187 106/110/187 105/109/187 
f 196/110/188 197/111/188 107/111/188 106/110/188 
f 197/111/189 198/112/189 108/112/189 107/111/189 
f 198/112/190 182/95/190 91/95/190 108/112/190 
# 182 polygons

